<svg xmlns="http://www.w3.org/2000/svg" viewBox="0 0 37.83 35.13"><defs><style>.cls-1{fill:#ead3c3;}</style></defs><title>资源 1</title><g id="图层_2" data-name="图层 2"><g id="图层_1-2" data-name="图层 1"><path class="cls-1" d="M1.84,13.51l2.21,1v-1Z"/><path class="cls-1" d="M37.83,15.63,19.49,24.19a1.35,1.35,0,0,1-1.14,0L0,15.63V35.13H37.83Z"/><path class="cls-1" d="M31.07,15.81V0H6.75V15.81l12.16,5.67ZM12.16,5.4H25.67a1.35,1.35,0,1,1,0,2.7H12.16a1.35,1.35,0,1,1,0-2.7Zm-1.35,6.75a1.35,1.35,0,0,1,1.35-1.35H25.67a1.35,1.35,0,1,1,0,2.7H12.16A1.35,1.35,0,0,1,10.81,12.16Z"/><path class="cls-1" d="M33.77,14.54l2.21-1H33.77Z"/></g></g></svg>