<?xml version="1.0" encoding="utf-8"?>
<!-- Generator: Adobe Illustrator 21.0.0, SVG Export Plug-In . SVG Version: 6.00 Build 0)  -->
<svg version="1.1" id="图层_1" xmlns="http://www.w3.org/2000/svg" xmlns:xlink="http://www.w3.org/1999/xlink" x="0px" y="0px"
	 viewBox="0 0 244 150" style="enable-background:new 0 0 244 150;" xml:space="preserve">
<style type="text/css">
	.st0{clip-path:url(#SVGID_2_);}
	.st1{fill:url(#Union_64_1_);}
</style>
<g>
	<defs>
		<rect id="SVGID_1_" width="244" height="150"/>
	</defs>
	<clipPath id="SVGID_2_">
		<use xlink:href="#SVGID_1_"  style="overflow:visible;"/>
	</clipPath>
	<g id="Icon2-lottery3-c" class="st0">
		
			<linearGradient id="Union_64_1_" gradientUnits="userSpaceOnUse" x1="-385.9952" y1="584.9146" x2="-385.2032" y2="583.8856" gradientTransform="matrix(135.3239 0 0 -141.5995 52306.0078 82828.5234)">
			<stop  offset="0" style="stop-color:#FFD200"/>
			<stop  offset="1" style="stop-color:#FF2E3A"/>
		</linearGradient>
		<path id="Union_64" class="st1" d="M93.2,117.4c0-15.5,12.6-28.1,28.2-28.1c15.5,0,28.1,12.6,28.1,28.2
			c0,15.5-12.6,28.1-28.1,28.1C105.8,145.6,93.2,133,93.2,117.4C93.2,117.5,93.2,117.5,93.2,117.4z M101.5,117.4
			c0,11,8.9,19.9,19.9,19.9s19.9-8.9,19.9-19.9s-8.9-19.9-19.9-19.9S101.5,106.5,101.5,117.4L101.5,117.4z M148,135.5
			c1.6-2.3,2.8-4.8,3.7-7.4c9.7,5.2,21.7,1.7,27-8c5.2-9.7,1.7-21.7-8-27c-8.1-4.4-18.1-2.7-24.3,4.2c-1.7-2.1-3.7-4.1-6-5.7
			c10.5-11.4,28.3-12.2,39.8-1.7c11.4,10.5,12.2,28.3,1.7,39.8C173.2,139.1,159.3,141.5,148,135.5L148,135.5z M54,110.6
			c0-15.5,12.6-28.1,28.1-28.1c7.8,0,15.2,3.2,20.5,8.9c-2.2,1.6-4.3,3.5-6,5.6c-7.5-8-20.1-8.4-28.1-0.8c-8,7.5-8.4,20.1-0.8,28.1
			c6.1,6.4,15.6,8.1,23.5,4.1c0.9,2.6,2.2,5.1,3.8,7.3c-13.9,7.1-30.8,1.6-37.9-12.3C55.1,119.4,54,115.1,54,110.6z M103.8,117.4
			c0-9.7,7.9-17.6,17.6-17.6c9.7,0,17.6,7.9,17.6,17.6s-7.9,17.6-17.6,17.6l0,0C111.6,135.1,103.8,127.2,103.8,117.4L103.8,117.4z
			 M106,117.4c0,8.5,6.9,15.4,15.3,15.4s15.4-6.9,15.4-15.3c0-8.5-6.9-15.4-15.3-15.4c0,0,0,0,0,0C112.9,102.1,106,109,106,117.4
			L106,117.4z M152.4,125.9c0.2-0.8,0.4-1.5,0.5-2.3c7.1,4.6,16.6,2.5,21.2-4.7c4.6-7.1,2.5-16.6-4.7-21.2
			c-6.7-4.3-15.5-2.8-20.4,3.5c-0.4-0.7-0.8-1.4-1.3-2c6.3-7.4,17.5-8.3,24.9-1.9c7.4,6.3,8.3,17.5,1.9,24.9
			C169.1,128.5,159.7,130.1,152.4,125.9z M64.5,110.6c0-9.7,7.9-17.6,17.6-17.6c5,0,9.7,2.1,13.1,5.8c-0.5,0.6-0.9,1.3-1.3,2
			c-5.4-6.5-15.1-7.4-21.6-1.9c-6.5,5.4-7.4,15.1-1.9,21.6c4.8,5.7,13.1,7.2,19.5,3.4c0.2,0.8,0.3,1.5,0.6,2.3
			c-8.6,4.6-19.3,1.3-23.9-7.2C65.2,116.4,64.5,113.5,64.5,110.6z M121.9,126.3c-1.4,0.1-2.9-0.2-4.1-0.9c-1.1-0.7-2-1.6-2.5-2.8
			c-0.7-1.6-1-3.4-0.9-5.1c0-3.1,0.7-5.4,2-6.8c1.4-1.5,3.4-2.3,5.4-2.2c1.1,0,2.2,0.1,3.2,0.5c0.8,0.3,1.4,0.8,2,1.4
			c0.6,0.7,1,1.5,1.2,2.3l-4.8,0.6c-0.1-0.5-0.3-1-0.6-1.4c-0.3-0.3-0.7-0.4-1.1-0.4c-0.8,0-1.5,0.5-1.8,1.2
			c-0.4,1.2-0.7,2.4-0.7,3.6c0.5-0.5,1.1-1,1.8-1.3c0.7-0.3,1.4-0.4,2.1-0.4c1.5,0,2.9,0.6,3.9,1.6c1.1,1.1,1.6,2.6,1.6,4.2
			c0,1.1-0.3,2.2-0.8,3.1c-0.5,0.9-1.3,1.7-2.2,2.1C124.3,126.1,123.1,126.4,121.9,126.3L121.9,126.3z M120,118.3
			c-0.5,0.6-0.7,1.3-0.7,2.1c0,0.8,0.2,1.6,0.7,2.2c0.4,0.5,1.1,0.8,1.7,0.8c0.6,0,1.2-0.3,1.6-0.7c0.5-0.6,0.7-1.4,0.6-2.1
			c0.1-0.8-0.2-1.6-0.7-2.2c-0.4-0.5-1-0.8-1.6-0.8C121,117.5,120.4,117.8,120,118.3L120,118.3z M161.4,120
			c-1.5,0.1-2.9-0.2-4.3-0.7c-0.9-0.4-1.7-1.1-2.2-1.9c-0.5-0.9-0.8-1.9-0.8-2.9c-0.1-1.9,1.1-3.7,2.9-4.3c-0.7-0.3-1.2-0.8-1.7-1.4
			c-0.5-0.7-0.7-1.5-0.7-2.4c0-1.5,0.8-2.9,2.1-3.6c1.3-0.8,2.8-1.2,4.3-1.1c1.8-0.1,3.7,0.3,5.2,1.3c1.1,0.8,1.7,2.1,1.7,3.4
			c0,0.8-0.2,1.6-0.7,2.2c-0.4,0.6-1,1.1-1.6,1.5c0.9,0.4,1.6,1,2.1,1.8c0.5,0.7,0.7,1.6,0.7,2.5c0,0.9-0.2,1.7-0.6,2.5
			c-0.3,0.7-0.9,1.3-1.5,1.8c-0.7,0.4-1.4,0.8-2.2,0.9C163.2,119.9,162.3,120,161.4,120L161.4,120z M159.6,112.4
			c-0.5,0.5-0.7,1.2-0.7,1.9c0,0.7,0.2,1.4,0.7,1.9c0.4,0.5,1,0.7,1.6,0.7c0.6,0,1.2-0.3,1.6-0.8c0.9-1.1,0.9-2.7,0-3.8
			c-0.4-0.5-1-0.7-1.6-0.7C160.6,111.7,160,111.9,159.6,112.4L159.6,112.4z M159.8,105.3c-0.7,0.8-0.7,2.1,0,2.9
			c0.4,0.4,1,0.6,1.5,0.6c0.5,0,1-0.2,1.4-0.6c0.4-0.4,0.6-0.9,0.5-1.4c0-0.6-0.2-1.1-0.6-1.5C161.8,104.6,160.6,104.6,159.8,105.3
			L159.8,105.3z M80.9,119.6v-11.4c-0.7,0.5-1.5,1-2.3,1.4c-0.9,0.4-1.8,0.8-2.7,1v-3.9c1.4-0.4,2.6-1,3.8-1.9
			c0.9-0.7,1.6-1.7,2.1-2.7h3.9v17.3H80.9z M125,82.2l-0.4,2.2c-1.1-0.1-2.1-0.2-3.2-0.2c-0.8,0-1.5,0-2.3,0.1l0.5-3.1l-17.4-3.1
			l-1,5.3c-2.1-1.5-4.3-2.7-6.6-3.6l12.6-69.6c0.7-4.1,4.6-6.8,8.7-6l63.1,11.4c4.1,0.7,6.8,4.6,6,8.7l-10.1,56
			c-2.2-1-4.5-1.7-6.9-2.2l2.1-11.8l-18-3.2l-2.9,16.6c-3.2,1.3-6.2,3-8.9,5.2L125,82.2z M126,76.8l17.8,3.1l3.1-17.8L129.1,59
			L126,76.8z M103.2,72.8l17.3,3l3.1-17.8l-17.3-3L103.2,72.8z M153.2,57.7l18.1,3.2l2.1-11.8c0.5-2.7-1.3-5.3-4-5.8l-13.2-2.4
			L153.2,57.7z M130,53.6l17.8,3.1l3-16.9L133,36.6L130,53.6z M109.6,37.5l-2.2,12.1l17.2,3l3-17l-12.2-2.2
			C112.7,33,110.1,34.8,109.6,37.5C109.6,37.5,109.6,37.5,109.6,37.5z M168.4,23.4c-1.7,0.3-3.2,1.3-4.1,2.8c-0.5,0.9-0.9,1.8-1,2.8
			c-0.2,1-0.2,2,0,2.9c0.2,0.8,0.5,1.6,1,2.4c0.5,0.7,1.1,1.3,1.9,1.7c0.8,0.5,1.7,0.8,2.5,0.9c0.9,0.2,1.8,0.2,2.7,0
			c0.8-0.1,1.6-0.4,2.3-0.9c0.7-0.5,1.3-1.1,1.8-1.9c0.5-0.9,0.9-1.8,1-2.8c0.2-1,0.2-2,0-3c-0.2-0.8-0.5-1.7-1-2.4
			c-0.5-0.7-1.1-1.2-1.9-1.7c-0.8-0.4-1.6-0.8-2.5-0.9c-0.5-0.1-1-0.1-1.4-0.1C169.2,23.3,168.8,23.4,168.4,23.4L168.4,23.4z
			 M154.8,21c-0.9,0.1-1.8,0.4-2.5,0.8c-0.8,0.5-1.5,1.1-2,1.8c-0.6,0.9-1,1.8-1.2,2.9c-0.2,1-0.2,2,0,3c0.2,0.9,0.6,1.7,1.2,2.3
			c0.6,0.7,1.3,1.2,2.1,1.6c0.9,0.4,1.8,0.7,2.7,0.9c0.4,0.1,0.8,0.1,1.1,0.1c0.4,0,0.8,0,1.1,0c0.3,0,0.7,0,1-0.1
			c0.3,0,0.5-0.1,0.8-0.2c0.3-0.1,0.6-0.3,0.8-0.5c0.2-0.3,0.4-0.6,0.4-0.9l0.8-4.3c0.2-0.6-0.2-1.3-0.8-1.5c-0.1,0-0.2,0-0.2,0
			l-3.5-0.6c-0.3-0.1-0.7,0-0.9,0.2c-0.3,0.3-0.5,0.6-0.5,1c-0.1,0.3-0.1,0.5,0,0.8c0,0.2,0.1,0.4,0.1,0.6l2.2,0.4l-0.4,2
			c-0.2,0.1-0.4,0.1-0.6,0.1c-0.3,0-0.6,0-0.8-0.1c-0.5-0.1-0.9-0.2-1.3-0.5c-0.4-0.2-0.7-0.5-1-0.9c-0.3-0.4-0.5-0.8-0.6-1.3
			c-0.1-0.6-0.1-1.1,0-1.7c0.1-1,0.7-2,1.5-2.6c0.9-0.6,2-0.7,3-0.5c0.6,0.1,1.2,0.3,1.7,0.6c0.4,0.2,0.8,0.5,1.2,0.9
			c0.3-0.1,0.5-0.3,0.7-0.5c0.2-0.2,0.4-0.6,0.4-0.9c0.1-0.7-0.2-1.5-0.9-1.9c-0.9-0.6-1.9-1.1-3-1.2
			C156.7,20.9,155.7,20.9,154.8,21L154.8,21z M138.6,22.9c0.1,0.5,0.2,1,0.3,1.4s0.2,0.9,0.3,1.3l1.3,4.6c0.1,0.5,0.5,1,0.9,1.3
			c0.4,0.2,0.9,0.4,1.4,0.5c0.4,0.1,0.9,0.1,1.4,0.1c0.3,0,0.6-0.1,0.9-0.3l1.9-10.7c0.2-0.5,0.1-1-0.2-1.4
			c-0.4-0.3-0.8-0.5-1.3-0.6c-0.3-0.1-0.6-0.1-0.9-0.1c-0.2,0-0.5,0-0.7,0l-0.6,3.4c-0.1,0.8-0.3,1.5-0.4,2.3
			c-0.1,0.8-0.2,1.5-0.3,2.3h-0.1c-0.1-0.5-0.2-1-0.3-1.4c-0.1-0.4-0.2-0.9-0.3-1.3l-1.3-4.6c-0.1-0.5-0.4-1-0.9-1.3
			c-0.4-0.2-0.9-0.4-1.4-0.5c-0.4-0.1-0.9-0.1-1.3,0c-0.4,0-0.7,0.2-1,0.5l-1.9,10.4c-0.1,0.3-0.1,0.6,0,0.9c0,0.2,0.1,0.4,0.3,0.6
			c0.1,0.2,0.3,0.3,0.5,0.4c0.3,0.1,0.5,0.2,0.8,0.2c0.3,0.1,0.6,0.1,0.9,0.1c0.2,0,0.5,0,0.7,0l0.6-3.2c0.1-0.8,0.3-1.5,0.4-2.3
			c0.1-0.8,0.2-1.6,0.3-2.3L138.6,22.9z M128.6,16.2l-2,11c-0.1,0.3-0.1,0.6,0,0.9c0,0.2,0.1,0.4,0.3,0.6c0.2,0.2,0.4,0.3,0.6,0.4
			c0.3,0.1,0.5,0.2,0.8,0.2c0.3,0.1,0.7,0.1,1,0.1c0.2,0,0.5,0,0.7,0l2-11c0.1-0.3,0.1-0.6,0-0.9c0-0.2-0.1-0.4-0.3-0.6
			c-0.2-0.2-0.4-0.3-0.6-0.4c-0.3-0.1-0.5-0.2-0.8-0.2c-0.3-0.1-0.6-0.1-1-0.1C129.1,16.3,128.8,16.2,128.6,16.2L128.6,16.2z
			 M115.6,14c-0.3,0-0.5,0.1-0.7,0.3c-0.2,0.2-0.3,0.4-0.4,0.6l-1.8,9.7c-0.1,0.7,0.2,1.4,0.9,1.7c0.3,0.2,0.6,0.3,0.9,0.4
			c0.3,0.1,0.7,0.2,1,0.3c0.3,0.1,0.7,0.2,1,0.3c0.3,0.1,0.6,0.1,0.8,0.2c1.5,0.4,3.1,0.3,4.6-0.2c1.1-0.5,1.9-1.5,2.1-2.8
			c0.2-0.7,0-1.4-0.3-2.1c-0.4-0.6-0.9-1.1-1.6-1.4c0.6-0.1,1.2-0.3,1.6-0.7c0.4-0.4,0.7-0.9,0.8-1.5c0.3-1.1-0.1-2.3-0.9-3
			c-1.1-0.9-2.5-1.5-4-1.6c-0.7-0.1-1.5-0.2-2.2-0.3c-0.3,0-0.5,0-0.8,0C116.3,14,115.9,14,115.6,14z M57.9,23.1
			c-0.6-3.5,1.7-6.8,5.1-7.4c0,0,0,0,0,0l37.8-6.8l-1.6,8.6c-0.1,0.1-0.2,0.1-0.3,0.2c-0.7,0.4-1.3,0.8-1.8,1.4
			c-0.5,0.6-0.9,1.3-1.1,2c-0.2,0.9-0.2,1.8-0.1,2.6c0.1,0.8,0.4,1.6,0.9,2.3c0.2,0.3,0.4,0.5,0.6,0.7l-1.5,8l-9.9,1.8l2.7,14.4
			l4.4-0.8L92.5,55l-2.7,0.5l1.3,7.1L88.6,76l-7.4,1.4c-4.5,0.1-8.9,1.1-13,3L57.9,23.1z M70.6,59l2.7,15.1L88,71.4l-2.8-15.1
			L70.6,59z M71.3,39.2c-2.3,0.4-3.8,2.6-3.4,4.9l1.9,10.3l14.6-2.7l-2.7-14.4L71.3,39.2z M69,22.7c-0.6,0.1-1.2,0.3-1.8,0.4
			c-0.5,0.1-1,0.3-1.5,0.6c-0.2,0.1-0.4,0.3-0.5,0.4c-0.1,0.2-0.2,0.4-0.1,0.6l1.5,8.3c0.1,0.6,0.6,1.1,1.2,1.1
			c0.3,0.1,0.5,0.1,0.8,0.1c0.3,0,0.6,0,0.9,0s0.6,0,0.9-0.1c0.3,0,0.5-0.1,0.7-0.1c1.3-0.2,2.6-0.7,3.6-1.5
			c0.8-0.7,1.1-1.8,0.8-2.8c-0.1-0.6-0.4-1.2-0.9-1.5c-0.5-0.4-1-0.6-1.6-0.6c0.5-0.2,0.8-0.6,1.1-1.1c0.2-0.4,0.3-1,0.2-1.5
			c-0.1-1-0.7-1.8-1.7-2.1c-0.6-0.2-1.2-0.3-1.8-0.3C70.2,22.5,69.6,22.6,69,22.7L69,22.7z M78.1,21.2c-0.3,0.1-0.5,0.1-0.8,0.2
			c-0.3,0.1-0.5,0.2-0.6,0.2l1.7,9.4c0,0.3,0.1,0.5,0.2,0.7c0.1,0.2,0.2,0.3,0.4,0.4c0.2,0.1,0.4,0.1,0.6,0.1c0.2,0,0.5,0,0.7-0.1
			c0.3,0,0.5-0.1,0.8-0.2c0.2-0.1,0.4-0.1,0.6-0.2l-1.7-9.4c0-0.3-0.1-0.5-0.2-0.7c-0.1-0.2-0.2-0.3-0.4-0.4
			c-0.2-0.1-0.4-0.1-0.6-0.1h0C78.6,21.1,78.4,21.1,78.1,21.2z M84.8,20c-0.4,0.1-0.7,0.2-1.1,0.4c-0.3,0.1-0.5,0.4-0.7,0.7l1.6,8.9
			c0,0.2,0.1,0.5,0.2,0.7c0.1,0.2,0.2,0.3,0.4,0.4c0.2,0.1,0.3,0.1,0.5,0.1c0.2,0,0.5,0,0.7-0.1c0.3,0,0.5-0.1,0.8-0.2
			c0.2-0.1,0.4-0.1,0.6-0.2l-0.5-2.7c-0.1-0.6-0.2-1.3-0.4-1.9c-0.1-0.7-0.3-1.3-0.4-1.9l0.1,0c0.2,0.4,0.5,0.7,0.7,1
			c0.2,0.3,0.4,0.6,0.7,1l2.4,3.3c0.3,0.4,0.7,0.7,1.1,0.8c0.4,0.1,0.9,0,1.3,0c0.4-0.1,0.8-0.2,1.1-0.3c0.3-0.1,0.5-0.3,0.6-0.5
			L92.9,20c-0.1-0.6-0.3-0.9-0.6-1.1c-0.4-0.1-0.8-0.2-1.2-0.1c-0.3,0-0.5,0.1-0.8,0.2c-0.2,0.1-0.4,0.1-0.6,0.2l0.5,2.9
			c0.1,0.6,0.2,1.3,0.4,1.9s0.3,1.3,0.4,1.9l-0.1,0c-0.2-0.4-0.5-0.7-0.7-1c-0.2-0.3-0.4-0.6-0.7-1l-2.4-3.3
			C86.9,20.3,86.5,20,86,20c-0.2,0-0.4,0-0.6,0C85.2,19.9,85,19.9,84.8,20L84.8,20z M169.2,33.9c-0.8-0.1-1.5-0.6-1.9-1.3
			c-0.4-0.9-0.5-2-0.3-3c0.1-1,0.6-2,1.3-2.7c0.6-0.5,1.5-0.7,2.2-0.6c0.8,0.1,1.5,0.6,1.9,1.3c0.4,0.9,0.5,2,0.3,3
			c-0.1,1-0.6,2-1.3,2.7c-0.5,0.4-1.1,0.6-1.7,0.6C169.6,34,169.4,34,169.2,33.9L169.2,33.9z M69.5,31.7l-0.4-2.2l1.5-0.3
			c0.4-0.1,0.8-0.1,1.2,0c0.3,0.1,0.5,0.4,0.5,0.8c0.1,0.4,0,0.7-0.3,1c-0.3,0.3-0.7,0.4-1.1,0.5c-0.2,0-0.5,0.1-0.7,0.1
			c-0.1,0-0.3,0-0.4,0C69.6,31.7,69.5,31.7,69.5,31.7L69.5,31.7z M68.3,25.3c0.2-0.1,0.4-0.1,0.5-0.2c0.2-0.1,0.4-0.1,0.6-0.1
			c0.4-0.1,0.8-0.1,1.2,0.1c0.3,0.1,0.5,0.4,0.5,0.7c0.1,0.3,0,0.6-0.2,0.9c-0.3,0.3-0.7,0.4-1.1,0.5l-1.3,0.2L68.3,25.3z
			 M118.1,24.9c-0.3-0.1-0.6-0.1-0.9-0.2c-0.3-0.1-0.5-0.1-0.7-0.3l0.5-2.5l1.7,0.3c0.5,0.1,1,0.2,1.3,0.5c0.3,0.3,0.4,0.7,0.3,1.1
			c0,0.4-0.3,0.8-0.7,1c-0.3,0.1-0.6,0.2-0.8,0.2C118.5,24.9,118.3,24.9,118.1,24.9L118.1,24.9z M118.9,19.6l-1.5-0.3l0.4-2.5
			c0.2,0,0.4,0,0.6,0.1c0.3,0,0.5,0.1,0.7,0.1c0.5,0.1,1,0.3,1.3,0.6c0.3,0.3,0.4,0.6,0.3,1c0,0.4-0.3,0.7-0.6,0.9
			c-0.2,0.1-0.5,0.2-0.7,0.2C119.3,19.7,119.1,19.6,118.9,19.6z"/>
	</g>
</g>
</svg>
