<?xml version="1.0" encoding="utf-8"?>
<!-- Generator: Adobe Illustrator 21.0.0, SVG Export Plug-In . SVG Version: 6.00 Build 0)  -->
<svg version="1.1" id="图层_1" xmlns="http://www.w3.org/2000/svg" xmlns:xlink="http://www.w3.org/1999/xlink" x="0px" y="0px"
	 viewBox="0 0 200 200" style="enable-background:new 0 0 200 200;" xml:space="preserve">
<style type="text/css">
	.st0{fill:#8A8A8A;}
</style>
<path class="st0" d="M110.3,102.6c0-0.2,0-0.3,0-0.5c0-3.6-1.8-6.7-4.6-8.5L104.3,61c-0.1-1.5-1.3-4.2-4.2-4.2
	c-2.9,0-4.2,2.7-4.2,4.2l-1.7,32.8c-2.6,1.9-4.3,4.9-4.3,8.3c0,5.7,4.6,10.2,10.2,10.2c0.4,0,0.8,0,1.3-0.1l19.7,17.5
	c1.1,1,4,1.9,6.4-0.5c2.4-2.4,1.5-5.3,0.5-6.4L110.3,102.6L110.3,102.6z"/>
<path class="st0" d="M162,99.4h-3.3c-1.4,0-2.6,1.2-2.6,2.6s1.2,2.6,2.6,2.6h3.3c1.4,0,2.6-1.2,2.6-2.6S163.4,99.4,162,99.4z"/>
<path class="st0" d="M41.4,99.4h-3.3c-1.4,0-2.6,1.2-2.6,2.6s1.2,2.6,2.6,2.6h3.3c1.4,0,2.6-1.2,2.6-2.6S42.8,99.4,41.4,99.4z"/>
<path class="st0" d="M100.1,158.1c-1.4,0-2.6,1.2-2.6,2.6v3.3c0,1.4,1.2,2.6,2.6,2.6s2.6-1.2,2.6-2.6v-3.3
	C102.7,159.3,101.5,158.1,100.1,158.1z"/>
<path class="st0" d="M100.1,46c1.4,0,2.6-1.2,2.6-2.6v-3.3c0-1.4-1.2-2.6-2.6-2.6s-2.6,1.2-2.6,2.6v3.3C97.5,44.8,98.6,46,100.1,46z
	"/>
<path class="st0" d="M100.1,18.5C54,18.5,16.6,55.9,16.6,102s37.4,83.5,83.5,83.5s83.5-37.4,83.5-83.5S146.2,18.5,100.1,18.5
	L100.1,18.5z M100.1,169.3c-37.1,0-67.2-30.2-67.2-67.2S63,34.8,100.1,34.8S167.3,65,167.3,102S137.1,169.3,100.1,169.3L100.1,169.3
	z"/>
</svg>
