<?xml version="1.0" encoding="utf-8"?>
<!-- Generator: Adobe Illustrator 21.0.0, SVG Export Plug-In . SVG Version: 6.00 Build 0)  -->
<svg version="1.1" id="图层_1" xmlns="http://www.w3.org/2000/svg" xmlns:xlink="http://www.w3.org/1999/xlink" x="0px" y="0px"
	 viewBox="0 0 244 150" style="enable-background:new 0 0 244 150;" xml:space="preserve">
<style type="text/css">
	.st0{fill:none;stroke:#BFBFBF;stroke-width:2;stroke-miterlimit:10;}
	.st1{fill:#BFBFBF;}
	.st2{fill:#FFFFFF;}
</style>
<g>
	<path d="M122.6,123.9"/>
</g>
<path class="st0" d="M127.7,88.2h-10.8c-1.5,0-2.7-1.2-2.7-2.7V63c0-1.5,1.2-2.7,2.7-2.7h10.8c1.5,0,2.7,1.2,2.7,2.7v22.5
	C130.4,87,129.1,88.2,127.7,88.2z" />
<path class="st1" d="M129.8,87.5h-15.4c-0.5,0-0.8-0.4-0.8-0.8v-2.9c0-0.5,0.4-0.8,0.8-0.8h15.4c0.5,0,0.8,0.4,0.8,0.8v2.9
	C130.6,87.1,130.2,87.5,129.8,87.5z" style="fill: #6b6b6b;" />
<circle class="st2" cx="122.1" cy="85.2" r="1.6"/>
</svg>
