<?xml version="1.0" encoding="utf-8"?>
<!-- Generator: Adobe Illustrator 21.0.0, SVG Export Plug-In . SVG Version: 6.00 Build 0)  -->
<svg version="1.1" id="图层_1" xmlns="http://www.w3.org/2000/svg" xmlns:xlink="http://www.w3.org/1999/xlink" x="0px" y="0px"
	 viewBox="0 0 244 150" style="enable-background:new 0 0 244 150;" xml:space="preserve">
<style type="text/css">
	.st0{clip-path:url(#SVGID_2_);}
	.st1{fill:url(#Union_53_1_);}
</style>
<g>
	<defs>
		<rect id="SVGID_1_" width="244" height="150"/>
	</defs>
	<clipPath id="SVGID_2_">
		<use xlink:href="#SVGID_1_"  style="overflow:visible;"/>
	</clipPath>
	<g id="Icon2-fish-c" class="st0">
		
			<linearGradient id="Union_53_1_" gradientUnits="userSpaceOnUse" x1="-386.1611" y1="584.7762" x2="-385.3691" y2="583.7472" gradientTransform="matrix(147.6482 0 0 -133.1487 57094.1445 77863.4453)">
			<stop  offset="0" style="stop-color:#FFD200"/>
			<stop  offset="1" style="stop-color:#FF2E3A"/>
		</linearGradient>
		<path id="Union_53" class="st1" d="M93.1,141.1c-6.8-1.3-11.1-9.1-12.8-13.1c-14.5-7-23.7-21.7-23.7-37.8c0-9.4,3.1-18.4,8.9-25.8
			l0,0c0,0,11-19.2,63.1-36c1.5-1.6,3.6-2.5,5.9-2.5c4.4,0,8,3.6,8,8c0,0,0,0,0,0c0,0,0,0,0,0.1c0,1.6,0.1,3.3,0.3,4.9
			c-6.6,2.1-11.7,7.2-13.9,13.7c-0.5-3.8,0-8.2,0.5-12.1c0.1-0.6,0.1-1.1,0.2-1.7c0.3-3.1,1.5-5.3,3.3-6.6c0.8-0.6,1.7-0.9,2.7-1
			c0.7,0,1.2-0.6,1.2-1.3c0-0.7-0.6-1.2-1.3-1.2c-1.4,0.1-2.7,0.6-3.9,1.4c-1.7,1.2-3.9,3.6-4.5,8.5c-0.1,0.5-0.1,1.1-0.2,1.7
			c-0.9,7.6-2.1,17.7,4.7,22.7c-2.5,0.8-6,1.4-7.7,0.6c-0.5-0.2-0.9-0.7-1-1.2c-1.3-5-1.5-6.2-1.6-6.5c0-0.5-0.3-1-0.8-1.2
			c-0.4-0.2-0.9-0.1-1.3,0.2c-0.6,0.5-0.5,1.2-0.2,2.2c0.2,1.2,0.7,3.2,1.5,6c0.3,1.2,1.1,2.3,2.3,2.8c1.1,0.5,2.2,0.7,3.4,0.7
			c2.9-0.1,5.8-0.8,8.6-1.9c1.4,3-14.7,5-14.7,5s-14.8,4.8-30.4,28.1s0.3,27.6,4.5,29.4s3.3,0,3.3,0c-11-7-3.3-19.3,3.5-27.6
			s46.2-38.1,49.7-41.7s-1.5-2-1.5-2l-10.4,3.5c0-3.2,1.6-6.3,4.2-8.2c0,0,1.5,3.1,3.1,3.1c0.6-1.4,1.3-2.8,2-4.1
			c1.8,0.9,3.9,0.9,5.7,0.2l0,0c0.6-0.4,1.3-0.6,2-0.6c1.6,0,3,1.1,3.3,2.7c0,3.3-3.3,4.2-3.3,4.2h0l-0.2,0.2l-0.2,0.2l-0.4,0.3
			l-0.1,0.1c-0.1,0.1-0.1,0.1-0.2,0.2l-0.1,0.1l-1.1,1l-0.1,0.1l-0.4,0.3l-0.1,0.1l-0.4,0.4l-0.1,0.1l-0.5,0.4l0,0
			c-0.4,0.3-0.8,0.7-1.2,1.1l-0.1,0l-0.6,0.5l-0.1,0.1l-0.5,0.5c0,0-0.1,0.1-0.1,0.1l-1.4,1.2l0,0l-0.7,0.6l-0.1,0.1l-0.6,0.6
			c0,0-0.1,0.1-0.1,0.1c-0.8,0.7-1.5,1.4-2.3,2.1l0,0c-0.2,0.2-0.5,0.4-0.7,0.7c0,0-0.1,0.1-0.1,0.1l-0.7,0.6l-0.1,0.1l-1,0.9
			c4.5,3.1,10.5,2.9,14.9-0.4c1.7-1.4,7.1-6.5,7-16.9c-0.1-6.9,2.2-13.7,6.5-19.1c-1.8-3.3-1.4-7.4,1.2-10.2c2.8-3,7.3-3.7,10.9-1.6
			l10.7-12.4c0.7-0.8,1.8-0.8,2.6-0.2c0,0,0,0,0,0c0.8,0.7,0.8,1.8,0.2,2.6l-10.8,12.4c2.4,3.4,2.1,8-0.7,11.1
			c-2.6,2.8-6.6,3.6-10.1,2c-6.4,9.7-4.1,8.7-5.1,19.1c-0.5,6.2-3.2,11.9-7.7,16.2l0,0c-6.5,6.3-16.7,6.8-23.7,1.1l-0.2,0.2
			c-6.1,5.4-12.5,10.9-16.7,14.3c-10.8,8.5-49.4,39.5,4.4,35.8c-7.4,5.9-16.6,9.1-26.1,9.1c-1.8,0-3.7-0.1-5.5-0.4
			c-0.2,1.8,0,3.6,0.5,5.3C94.7,141,93.4,141.2,93.1,141.1C93.1,141.2,93.1,141.2,93.1,141.1z M94.8,49.9c-7.6,3.4-14.4,8.3-20,14.5
			c-4.1,4.7-7.3,10.1-9.3,16c-2.1,5.8-3,12.1-2.5,18.3c0.1,0.6,0.6,1.1,1.2,1.1c0.1,0,0.1,0,0.2,0c0.7-0.1,1.2-0.7,1.1-1.4
			c0,0,0,0,0,0c-0.4-5.8,0.4-11.6,2.4-17.1c1.9-5.6,4.9-10.7,8.8-15.1c5.3-5.9,11.9-10.6,19.2-13.9c0.6-0.3,0.9-1,0.6-1.7
			c-0.2-0.4-0.6-0.7-1.1-0.7C95.1,49.8,95,49.9,94.8,49.9L94.8,49.9z M99.2,72.7c-3.8,1.2-7.5,2.6-11.1,4.3
			C80.4,80.5,76,84.1,75,87.6c-0.1,0.4,0,0.8,0.2,1.1c0.2,0.3,0.6,0.5,1,0.5c2.6,0,11.1-0.1,13.3-1.8c0.6-0.4,0.7-1.2,0.3-1.8
			c0,0,0,0,0,0c-0.4-0.6-1.2-0.7-1.8-0.3c0,0,0,0,0,0c-0.9,0.7-5.4,1.1-9.8,1.2c1.6-2.3,5.4-4.9,10.9-7.4c3.5-1.6,7.1-3,10.8-4.2
			c0.7-0.2,1-0.9,0.8-1.6c-0.2-0.5-0.6-0.9-1.2-0.9C99.5,72.6,99.3,72.7,99.2,72.7L99.2,72.7z M116.5,43.9c0,1.5,1.2,2.8,2.8,2.8
			l0,0c1.5,0,2.8-1.2,2.8-2.8l0,0c0-1.5-1.2-2.8-2.8-2.8l0,0C117.8,41.2,116.5,42.4,116.5,43.9L116.5,43.9z M174,25.5
			c-1.7,1.8-1.5,4.6,0.3,6.3c0,0,0,0,0,0c1.8,1.7,4.6,1.5,6.3-0.3c0,0,0,0,0,0c1.6-1.7,1.6-4.3,0-6c-0.1,0-0.1-0.1-0.2-0.2
			c-0.1-0.1-0.2-0.2-0.3-0.3c-0.8-0.6-1.8-1-2.8-1C176.1,24.1,174.9,24.6,174,25.5L174,25.5z M122.9,131.5c7-4.3,9-13.7,4.9-13.1
			c-2.7,0.4-7.7,0-11.6-0.5c1.9-10.2,11.4-21.3,11.4-21.3s8.3,5.8,8.8,18.6s8.3,19.3,8.3,19.3c-2.1,0.3-4.2,0.4-6.3,0.4
			C133,135,127.7,133.9,122.9,131.5L122.9,131.5z M124.7,123.1L124.7,123.1z M62.3,44c5.2,0.4,10.3,1.1,15.4,2
			c-13.5,8.8-17.3,15.3-17.3,15.3l0,0c-5.8,7.4-8.9,16.5-8.9,25.8c0,2.1,0.1,4.1,0.4,6.1l-0.1,0.1C42.1,77.2,52.5,43.4,62.3,44
			L62.3,44z M130.4,57.8c0.2-4.2,1.9-8.1,4.7-11.2c1.8-1.9,3.9-3.4,6.3-4.4l0,0.1l0,0l12.5-5.5c0,0-8,8.7-8.8,15
			c-0.8-1.4-1.5-2.9-1.9-4.5c-1.6,0.7-3,1.7-4.2,3c-2.5,2.7-3.7,6.3-3.3,9.9l-2.6,0.9C132,60.1,131,59,130.4,57.8L130.4,57.8z"/>
	</g>
</g>
</svg>
