<?xml version="1.0" encoding="utf-8"?>
<!-- Generator: Adobe Illustrator 21.0.0, SVG Export Plug-In . SVG Version: 6.00 Build 0)  -->
<svg version="1.1" id="图层_1" xmlns="http://www.w3.org/2000/svg" xmlns:xlink="http://www.w3.org/1999/xlink" x="0px" y="0px"
	 viewBox="0 0 244 150" style="enable-background:new 0 0 244 150;" xml:space="preserve">
<style type="text/css">
	.st0{fill:#423B2D;}
</style>
<path class="st0" d="M86,99c-1.3,4.2-2.1,8.3-2.3,12h-0.3c-0.3-3.7-1-7.6-2.1-11.8L58.7,15.5H34.5l36,118.3h25.2L132,15.5h-23.4
	L86,99z M203.6,81.1c-3.9-5.6-11.1-11-21.4-15.9c-9-4.4-14.4-7.8-16.7-10.5c-2.3-2.5-3.3-5.4-3.3-8.3c0-3.9,1.5-6.9,4.9-9.1
	c3.3-2.2,7.7-3.4,13.1-3.4c9.5,0,17.8,2.7,24.7,8.1V18.2c-6.9-2.9-15.4-4.4-25.7-4.4c-12.4,0-22.1,2.9-29.6,9.1
	c-7.5,6.1-11.1,14.7-11.1,25.7c0,14.9,8.2,26.5,24.4,34.3c10.3,4.9,16.7,8.8,19.3,11.5c2.6,2.7,3.6,5.9,3.6,9.1
	c0,3.7-1.5,6.9-4.6,9.1c-3.1,2.5-7.7,3.7-13.6,3.7c-10.8,0-20.3-3.9-28.8-11.8v25.2c7.7,4.4,17.5,6.6,29.6,6.6
	c13.1,0,23.2-2.9,30.4-9.1c7.2-5.9,10.8-14.7,10.8-26C209.5,93.4,207.4,86.5,203.6,81.1L203.6,81.1z"/>
</svg>
