<?xml version="1.0" standalone="no"?><!DOCTYPE svg PUBLIC "-//W3C//DTD SVG 1.1//EN" "http://www.w3.org/Graphics/SVG/1.1/DTD/svg11.dtd"><svg t="1578643327114" class="icon" viewBox="0 0 1024 1024" version="1.1" xmlns="http://www.w3.org/2000/svg" p-id="41600" xmlns:xlink="http://www.w3.org/1999/xlink" width="200" height="200"><defs><style type="text/css"></style></defs><path d="M374.831 437.745c0-22.757-18.485-41.166-41.245-41.166-22.914 0-41.399 18.409-41.399 41.166 0 16.778 10.175 31.147 24.31 37.516v57.555h34.098v-57.555c14.214-6.369 24.234-20.738 24.234-37.516z" p-id="41601" style="fill: #6b6b6b;"></path><path d="M787.194 96.142h-550.541c-92.119 0-166.995 77.129-166.995 172.122v659.671h108.43c0 0 2.718-60.196 86.139-60.196h495.161c83.575 0 86.293 60.196 86.293 60.196h108.43v-659.748c0.078-94.915-74.799-172.045-166.917-172.045zM236.652 795.97c-53.827 0-97.556-45.127-97.556-100.431v-427.353c0-55.457 43.729-100.353 97.556-100.353h550.541c53.827 0 97.556 44.895 97.556 100.353v427.353c0 55.302-43.729 100.431-97.556 100.431h-550.541z" p-id="41602" style="fill: #6b6b6b;"></path><path d="M843.040 308.498v-40.311c0-31.535-25.010-57.323-55.846-57.323h-550.541c-30.758 0-55.846 25.788-55.846 57.323v427.353c0 31.535 25.010 57.399 55.846 57.399h550.541c30.758 0 55.846-25.866 55.846-57.399v-25.866c-23.379-0.932-41.866-12.738-41.866-27.185s18.485-26.409 41.866-27.263v-252.357c-23.379-1.009-41.866-12.816-41.866-27.263s18.485-26.253 41.866-27.107zM333.586 576.467c-65.089 0-117.596-52.739-117.596-117.596 0-64.934 52.507-117.596 117.596-117.596 64.779 0 117.596 52.662 117.596 117.596 0 64.857-52.817 117.596-117.596 117.596zM545.865 342.596c15.923 0 28.66 12.816 28.66 28.739 0 15.767-12.738 28.739-28.66 28.739s-28.66-12.972-28.66-28.739c-0.078-15.923 12.66-28.739 28.66-28.739zM546.719 571.807c-15.923 0-28.816-12.972-28.816-28.816s12.893-28.739 28.816-28.739c15.767 0 28.66 12.893 28.66 28.739s-12.893 28.816-28.66 28.816zM546.719 479.765c-15.923 0-28.816-12.972-28.816-28.739 0-15.844 12.893-28.583 28.816-28.583 15.767 0 28.66 12.738 28.66 28.583 0 15.767-12.893 28.739-28.66 28.739zM645.829 342.596c15.923 0 28.816 12.816 28.816 28.739 0 15.767-12.893 28.739-28.816 28.739s-28.816-12.972-28.816-28.739c0-15.923 12.893-28.739 28.816-28.739zM646.684 571.807c-15.923 0-28.66-12.972-28.66-28.816s12.738-28.739 28.66-28.739 28.816 12.893 28.816 28.739-12.893 28.816-28.816 28.816zM646.684 479.765c-15.923 0-28.66-12.972-28.66-28.739 0-15.844 12.738-28.583 28.66-28.583s28.816 12.738 28.816 28.583c0 15.767-12.893 28.739-28.816 28.739zM743.93 342.596c15.923 0 28.66 12.816 28.66 28.739 0 15.767-12.738 28.739-28.66 28.739-15.767 0-28.66-12.972-28.66-28.739 0-15.923 12.893-28.739 28.66-28.739zM744.861 571.807c-15.767 0-28.66-12.972-28.66-28.816s12.893-28.739 28.66-28.739c15.923 0 28.816 12.893 28.816 28.739s-12.893 28.816-28.816 28.816zM744.861 479.765c-15.767 0-28.66-12.972-28.66-28.739 0-15.844 12.893-28.583 28.66-28.583 15.923 0 28.816 12.738 28.816 28.583 0 15.767-12.893 28.739-28.816 28.739z" p-id="41603" style="fill: #6b6b6b;"></path></svg>