<?xml version="1.0" standalone="no"?><!DOCTYPE svg PUBLIC "-//W3C//DTD SVG 1.1//EN" "http://www.w3.org/Graphics/SVG/1.1/DTD/svg11.dtd"><svg t="1578794326078" class="icon" viewBox="0 0 1024 1024" version="1.1" xmlns="http://www.w3.org/2000/svg" p-id="2923" xmlns:xlink="http://www.w3.org/1999/xlink" width="200" height="200"><defs><style type="text/css"></style></defs><path d="M953.344 146.285714c39.058286 0 70.656 23.698286 70.656 54.345143v660.699429c0 29.257143-31.597714 52.955429-70.656 52.955428H70.656c-39.058286 0-70.656-23.698286-70.656-52.955428V199.241143C0 169.984 31.597714 146.285714 70.656 146.285714h882.688zM598.381714 363.885714a22.381714 22.381714 0 0 0 0 44.763429h275.236572a22.381714 22.381714 0 1 0 0-44.763429H598.308571z m0 159.963429a22.381714 22.381714 0 0 0 0 44.836571h275.236572a22.381714 22.381714 0 1 0 0-44.836571H598.308571z m0 160.036571a22.381714 22.381714 0 0 0 0 44.763429h168.521143a22.381714 22.381714 0 1 0 0-44.763429H598.381714zM315.245714 298.422857c-73.142857 0-133.193143 60.050286-133.193143 133.193143s60.123429 133.193143 133.193143 133.193143c73.142857 0 133.266286-60.050286 133.266286-133.193143s-60.123429-133.266286-133.266286-133.266286z m-211.163428 498.761143h422.4A211.968 211.968 0 0 0 315.245714 605.476571a211.968 211.968 0 0 0-211.163428 191.707429z" p-id="2924" style="fill: #d9893d;"></path></svg>