<?xml version="1.0" encoding="utf-8"?>
<!-- Generator: Adobe Illustrator 21.0.0, SVG Export Plug-In . SVG Version: 6.00 Build 0)  -->
<svg version="1.1" id="图层_1" xmlns="http://www.w3.org/2000/svg" xmlns:xlink="http://www.w3.org/1999/xlink" x="0px" y="0px"
	 viewBox="0 0 244 150" style="enable-background:new 0 0 244 150;" xml:space="preserve">
<style type="text/css">
	.st0{clip-path:url(#SVGID_2_);}
	.st1{fill:#423B2D;}
</style>
<g>
	<defs>
		<rect id="SVGID_1_" width="244" height="150"/>
	</defs>
	<clipPath id="SVGID_2_">
		<use xlink:href="#SVGID_1_"  style="overflow:visible;"/>
	</clipPath>
	<g id="Icon2-slot-b" class="st0">
		<path id="Union_52" class="st1" d="M126.9,140.9c-4.7-1.2-8.2-3.6-7.8-5.4c0,0,0-0.1,0-0.1h0l0.7-2.8c-0.4,1.8,3,4.2,7.8,5.4
			c4.7,1.2,8.9,0.6,9.4-1.2l-0.7,2.8h0c0,0,0,0.1,0,0.1c-0.3,1.2-2.1,1.8-4.7,1.8C130,141.5,128.5,141.3,126.9,140.9z M140.2,137
			c0.3-0.9,0.5-1.9,0.7-2.8c0.1-0.9-0.3-1.8-1-2.4h6.6c4.6,0,8.3-3.7,8.3-8.3v-1.6h5.4v1.6c0,7.5-6.1,13.6-13.6,13.6l0,0L140.2,137z
			 M88.5,137c-7.5,0-13.6-6.1-13.6-13.6c0,0,0,0,0,0v-1.6h5.4v1.6c0,4.6,3.7,8.3,8.3,8.3c0,0,0,0,0,0h28.3c0,0,0,0,0,0l-0.9,3.8h0
			c0,0,0,0.1,0,0.1c-0.1,0.5,0,1,0.2,1.4L88.5,137z M137,136.7L137,136.7L137,136.7C137,136.8,137,136.8,137,136.7L137,136.7z
			 M128.2,135.7c-4.7-1.2-8.2-3.6-7.8-5.4s4.6-2.4,9.4-1.2s8.2,3.6,7.8,5.4c-0.3,1.2-2.1,1.8-4.7,1.8
			C131.3,136.3,129.7,136.1,128.2,135.7L128.2,135.7z M119.9,132.5L119.9,132.5C119.9,132.5,119.9,132.6,119.9,132.5L119.9,132.5z
			 M101,128.6C101,128.6,101,128.5,101,128.6L101,128.6l-0.6-1.6c0.4,1,2.8,1.1,5.6,0.2s4.6-2.5,4.3-3.6l0.5,1.6l0,0c0,0,0,0,0,0
			c0.4,1-1.5,2.6-4.3,3.6c-1.1,0.4-2.3,0.6-3.4,0.6C102,129.4,101.2,129.1,101,128.6z M100.4,126.9L100.4,126.9
			C100.4,126.9,100.4,126.9,100.4,126.9L100.4,126.9z M100,125.6c-0.4-1,1.5-2.6,4.3-3.6s5.2-0.8,5.6,0.2s-1.5,2.6-4.3,3.6
			c-1.1,0.4-2.3,0.6-3.4,0.6C101,126.5,100.2,126.2,100,125.6L100,125.6z M110.2,123.6L110.2,123.6L110.2,123.6z M110.2,123.5
			L110.2,123.5L110.2,123.5C110.2,123.5,110.2,123.5,110.2,123.5L110.2,123.5z M123.5,122.9c-3.9,0-7.1-1.3-7.1-2.8c0,0,0,0,0-0.1
			l0,0l0-2.3c0,1.5,3.2,2.8,7.1,2.8s7.2-1.2,7.2-2.7c0,0,0-0.1,0-0.1l0,0v0.1l0,2.3l0,0c0,0,0,0,0,0.1c0,1.5-3.2,2.7-7.1,2.7H123.5z
			 M123.5,118.6c-3.1,0-5.7-0.8-6.7-1.8H68.4c-2.4,0-4.4-2-4.4-4.4c0,0,0,0,0,0V62.7l0,0c0,0,0-0.1,0-0.1C64,33,88,9,117.5,9
			c29.6,0,53.5,24,53.5,53.5c0,0,0,0.1,0,0.1l0,0v49.7c0,2.4-2,4.4-4.4,4.4c0,0,0,0,0,0h-36.4c-1,1.1-3.6,1.8-6.7,1.8L123.5,118.6z
			 M72.5,67.2V105c-0.1,1.7,1.3,3.2,3,3.2h84.2c1.7-0.1,3.1-1.5,3-3.2V67.2c0.1-1.7-1.3-3.2-3-3.2H75.5
			C73.8,64.1,72.4,65.5,72.5,67.2L72.5,67.2z M75,50.7c-0.4,1.4,0.4,2.8,1.8,3.2C77,54,77.3,54,77.5,54h80c1.4,0,2.6-1.2,2.6-2.6
			c0-0.2,0-0.5-0.1-0.7c-5.4-19-22.7-32.2-42.5-32.2C97.7,18.5,80.4,31.7,75,50.7L75,50.7z M116.4,117.7L116.4,117.7
			C116.4,117.7,116.4,117.7,116.4,117.7L116.4,117.7z M137.1,100.9c-1,0-1.9-0.8-1.9-1.9c0,0,0,0,0,0V73.3c0-1,0.8-1.9,1.9-1.9h17.5
			c1,0,1.9,0.8,1.9,1.9c0,0,0,0,0,0V99c0,1-0.8,1.9-1.9,1.9c0,0,0,0,0,0L137.1,100.9z M139.4,81.8h8.1v2c-3.7,3.1-5.7,7.8-5.4,12.6
			h5.4c0,0-0.4-6.9,5-10v-9.6h-13.1L139.4,81.8z M108.9,100.9c-1,0-1.9-0.8-1.9-1.9c0,0,0,0,0,0V73.3c0-1,0.8-1.9,1.9-1.9h17.6
			c1,0,1.9,0.8,1.9,1.9V99c0,1-0.8,1.9-1.9,1.9c0,0,0,0,0,0L108.9,100.9z M111.1,81.8h8.1v2c-3.7,3.1-5.7,7.8-5.4,12.6h5.4
			c0,0-0.4-6.9,5-10v-9.6h-13.1L111.1,81.8z M80.7,100.9c-1,0-1.9-0.8-1.9-1.9c0,0,0,0,0,0V73.3c0-1,0.8-1.9,1.9-1.9c0,0,0,0,0,0
			h17.6c1,0,1.9,0.8,1.9,1.9V99c0,1-0.8,1.9-1.9,1.9c0,0,0,0,0,0L80.7,100.9z M82.9,81.8H91v2c-3.7,3.1-5.7,7.8-5.4,12.6H91
			c0,0-0.4-6.9,5-10v-9.6H82.9L82.9,81.8z M175,94.9V72.1h0.4c1.3,0,2.4,1.8,2.4,4v2.8h8c1.1,0,1.9,0.9,1.9,1.9v5.5
			c0,1.1-0.9,1.9-1.9,1.9l0,0h-8V91c0,2.2-1.1,4-2.4,4L175,94.9z M180.5,75.1V52.6c0.8,0.2,1.7,0.4,2.5,0.4c0.8,0,1.7-0.1,2.5-0.4
			v22.6H180.5z M176.7,44c0-3.5,2.8-6.3,6.3-6.3c3.5,0,6.3,2.8,6.3,6.3c0,0,0,0,0,0c0,3.5-2.8,6.3-6.3,6.3c0,0,0,0,0,0
			C179.5,50.3,176.7,47.5,176.7,44L176.7,44z M142.3,46.7l-3.7-2.7c-0.2-0.1-0.4-0.1-0.6,0l-3.7,2.7c-0.2,0.2-0.6,0.1-0.8-0.1
			c-0.1-0.1-0.1-0.3-0.1-0.5l1.4-4.3c0.1-0.2,0-0.5-0.2-0.6l-3.7-2.7c-0.2-0.2-0.3-0.5-0.1-0.8c0.1-0.1,0.3-0.2,0.4-0.2h4.5
			c0.2,0,0.4-0.2,0.5-0.4l1.4-4.3c0.1-0.3,0.4-0.4,0.7-0.3c0.2,0.1,0.3,0.2,0.3,0.3l1.4,4.3c0.1,0.2,0.3,0.4,0.5,0.4h4.5
			c0.3,0,0.5,0.2,0.5,0.5c0,0.2-0.1,0.3-0.2,0.4l-3.7,2.7c-0.2,0.1-0.3,0.4-0.2,0.6l1.4,4.3c0.1,0.3-0.1,0.6-0.3,0.7
			c-0.1,0-0.1,0-0.2,0C142.5,46.8,142.4,46.8,142.3,46.7L142.3,46.7z M100.8,46.7L97.1,44c-0.2-0.1-0.4-0.1-0.6,0l-3.7,2.7
			c-0.2,0.2-0.6,0.1-0.8-0.1c-0.1-0.1-0.1-0.3-0.1-0.5l1.4-4.3c0.1-0.2,0-0.5-0.2-0.6l-3.7-2.7c-0.2-0.2-0.3-0.5-0.1-0.8
			c0.1-0.1,0.3-0.2,0.4-0.2h4.5c0.2,0,0.4-0.2,0.5-0.4l1.4-4.3c0.1-0.3,0.4-0.4,0.7-0.3c0.2,0.1,0.3,0.2,0.3,0.3l1.4,4.3
			c0.1,0.2,0.3,0.4,0.5,0.4h4.5c0.3,0,0.5,0.2,0.5,0.5c0,0.2-0.1,0.3-0.2,0.4l-3.7,2.7c-0.2,0.1-0.3,0.4-0.2,0.6l1.4,4.3
			c0.1,0.3-0.1,0.6-0.3,0.7c-0.1,0-0.1,0-0.2,0C101,46.8,100.9,46.8,100.8,46.7L100.8,46.7z M122.6,46.6l-4.7-3.4
			c-0.2-0.2-0.6-0.2-0.8,0l-4.7,3.4c-0.3,0.2-0.7,0.2-1-0.2c-0.1-0.2-0.2-0.4-0.1-0.6l1.8-5.5c0.1-0.3,0-0.6-0.3-0.8l-4.7-3.4
			c-0.3-0.2-0.4-0.7-0.2-1c0.1-0.2,0.3-0.3,0.6-0.3h5.8c0.3,0,0.6-0.2,0.7-0.5l1.8-5.5c0.1-0.4,0.5-0.6,0.9-0.4
			c0.2,0.1,0.4,0.2,0.4,0.4l1.8,5.5c0.1,0.3,0.4,0.5,0.7,0.5h5.8c0.4,0,0.7,0.3,0.7,0.7c0,0.2-0.1,0.4-0.3,0.6l-4.7,3.4
			c-0.2,0.2-0.3,0.5-0.3,0.8l1.8,5.5c0.1,0.4-0.1,0.8-0.5,0.9c-0.1,0-0.1,0-0.2,0C122.9,46.8,122.8,46.7,122.6,46.6L122.6,46.6z"/>
	</g>
</g>
</svg>
