<?xml version="1.0" encoding="utf-8"?>
<!-- Generator: Adobe Illustrator 21.0.0, SVG Export Plug-In . SVG Version: 6.00 Build 0)  -->
<svg version="1.1" id="Layer_1" xmlns="http://www.w3.org/2000/svg" xmlns:xlink="http://www.w3.org/1999/xlink" x="0px" y="0px"
	 viewBox="0 0 64 64" style="enable-background:new 0 0 64 64;" xml:space="preserve">
<style type="text/css">
	.st0{fill:#DB692D;}
</style>
<title></title>
<path class="st0" d="M32,64C14.3,64,0,49.7,0,32S14.3,0,32,0s32,14.3,32,32S49.7,64,32,64z M32,4C16.5,4,4,16.5,4,32s12.5,28,28,28
	s28-12.5,28-28S47.5,4,32,4z"/>
<path class="st0" d="M32,51v-4c8.3,0,15-6.7,15-15s-6.7-15-15-15s-15,6.7-15,15h-4c0-10.5,8.5-19,19-19s19,8.5,19,19S42.5,51,32,51z
	"/>
<path class="st0" d="M32,34h-7v-4h5v-9h4v11C34,33.1,33.1,34,32,34z"/>
<rect x="2" y="30" class="st0" width="7" height="4"/>
<rect x="55" y="30" class="st0" width="7" height="4"/>
<rect x="30" y="2" class="st0" width="4" height="7"/>
<rect x="30" y="55" class="st0" width="4" height="7"/>
</svg>
