<?xml version="1.0" encoding="utf-8"?>
<!-- Generator: Adobe Illustrator 21.0.0, SVG Export Plug-In . SVG Version: 6.00 Build 0)  -->
<svg version="1.1" id="Layer_1" xmlns="http://www.w3.org/2000/svg" xmlns:xlink="http://www.w3.org/1999/xlink" x="0px" y="0px"
	 viewBox="0 0 64 64" style="enable-background:new 0 0 64 64;" xml:space="preserve">
<style type="text/css">
	.st0{fill:#DB692D;}
</style>
<title></title>
<path class="st0" d="M32,64C17.1,64,5,51.9,5,37s12.1-27,27-27s27,12.1,27,27S46.9,64,32,64z M32,14C19.3,14,9,24.3,9,37
	s10.3,23,23,23s23-10.3,23-23S44.7,14,32,14z"/>
<rect x="26" y="2" class="st0" width="4" height="12"/>
<rect x="34" y="2" class="st0" width="4" height="12"/>
<rect x="23" class="st0" width="18" height="4"/>
<path class="st0" d="M28.3,45.6l-2.5-3.1L30,39V27h4v13c0,0.6-0.3,1.2-0.8,1.6L28.3,45.6z"/>
<path class="st0" d="M55.9,26.4l-2.8-2.8l4.1-4.1l-5.7-5.7l-4.1,4.1l-2.8-2.8l4.1-4.1c1.6-1.6,4.1-1.6,5.7,0l5.7,5.7
	c1.6,1.6,1.6,4.1,0,5.6L55.9,26.4z"/>
</svg>
