<?xml version="1.0" encoding="utf-8"?>
<!-- Generator: Adobe Illustrator 21.0.0, SVG Export Plug-In . SVG Version: 6.00 Build 0)  -->
<svg version="1.1" id="图层_1" xmlns="http://www.w3.org/2000/svg" xmlns:xlink="http://www.w3.org/1999/xlink" x="0px" y="0px"
	 viewBox="0 0 244 150" style="enable-background:new 0 0 244 150;" xml:space="preserve">
<style type="text/css">
	.st0{fill:url(#SVGID_3_);}
	.st1{fill:url(#SVGID_4_);}
</style>
<g>
	<defs>
		<rect id="SVGID_1_" width="244" height="150"/>
	</defs>
	<clipPath id="SVGID_2_">
		<use xlink:href="#SVGID_1_"  style="overflow:visible;"/>
	</clipPath>
</g>
<g>
	<linearGradient id="SVGID_3_" gradientUnits="userSpaceOnUse" x1="79.3395" y1="36.9963" x2="155.0379" y2="115.1109">
		<stop  offset="0" style="stop-color:#FFD200"/>
		<stop  offset="1" style="stop-color:#FF2E3A"/>
	</linearGradient>
	<path class="st0" d="M82.9,55.8l29.5-29.5c1.4-1.4,3.3-2.2,5.2-2.2c1.9,0,3.8,0.7,5.2,2.2l29.6,29.6l30.9,30.9
		c0.3,0.3,0.8,0.2,1-0.2c1.3-2.9,1.9-6,1.9-9.2c0-6.1-2.4-11.8-6.6-16l-46-46c-8.9-8.8-23.3-8.8-32.1,0l-45.9,46
		c-4.3,4.3-6.6,10-6.6,16c0,3.2,0.7,6.3,1.9,9.2c0.2,0.4,0.7,0.5,1,0.2C51.9,86.8,82.9,55.8,82.9,55.8z"/>
	<linearGradient id="SVGID_4_" gradientUnits="userSpaceOnUse" x1="80.8487" y1="67.2897" x2="153.7663" y2="142.5348">
		<stop  offset="0" style="stop-color:#FFD200"/>
		<stop  offset="1" style="stop-color:#FF2E3A"/>
	</linearGradient>
	<path class="st1" d="M67.8,81.4c-0.9,0.9-1.3,2-1.3,3.2v36.8c0,8.7,7,15.7,15.7,15.7h16.5c1.7,0,3-1.3,3-3V98.5
		c0-1.8,2.2-2.6,3.9-2.6h24.3c1.8,0,3.9,1,3.9,2.6V134c0,1.7,1.3,3,3,3h16.5c8.7,0,15.7-7,15.7-15.7V84.6c0-1.2-0.5-2.4-1.3-3.2
		l-47.9-47.9c-1.1-1.1-2.8-1.1-3.8,0L67.8,81.4z"/>
</g>
</svg>
