<?xml version="1.0" encoding="utf-8"?>
<!-- Generator: Adobe Illustrator 23.0.0, SVG Export Plug-In . SVG Version: 6.00 Build 0)  -->
<svg version="1.1" id="图层_1" xmlns="http://www.w3.org/2000/svg" xmlns:xlink="http://www.w3.org/1999/xlink" x="0px" y="0px"
	 viewBox="0 0 244 150" style="enable-background:new 0 0 244 150;" xml:space="preserve">
<style type="text/css">
	.st0{fill:#423B2D;}
</style>
<path class="st0" d="M122.7,35.8h-10.2V65H51.9V41.6c0-3.7,2.9-6.6,6.7-6.6h27.6c-7.4-1.5-13-4.7-13.2-10.6
	c-0.2-6.9,7.6-18.1,18.9-15.5c11.7,2.6,19.9,11.7,26.2,19.5c6.3-7.9,15.3-18.1,27.5-19.8c10.2-1.3,18.7,8.9,17.6,15.7
	c-0.9,5.9-6.6,9.1-13.8,10.7h27.2c3.7,0,6.7,3,6.7,6.6V65h-60.5 M93.1,15c-5.7-2.2-9,0.2-11.4,4.1c-1.3,2.2-2.7,5.2-0.6,7.3
	c5.4,5.6,20.4,5.2,30.4,4.2C106.8,24.7,101,18.1,93.1,15z M155,26.4c3.9-5-3.7-15.3-11.9-11.5c-7.8,3.7-13.5,9.7-18.4,15.6
	c4.2,0.4,8.4,0.5,12.7,0.2C142.6,30.6,152,30.2,155,26.4z M59,70.4v42.4c0,13.1,10.7,23.9,23.9,23.9h29.6V70.4H59z M122.7,70.4v66.3
	h29.6c13.1,0,23.9-10.7,23.9-23.9V70.4H122.7z"/>
</svg>
