<?xml version="1.0" encoding="utf-8"?>
<!-- Generator: Adobe Illustrator 21.0.0, SVG Export Plug-In . SVG Version: 6.00 Build 0)  -->
<svg version="1.1" id="图层_1" xmlns="http://www.w3.org/2000/svg" xmlns:xlink="http://www.w3.org/1999/xlink" x="0px" y="0px"
	 viewBox="0 0 244 150" style="enable-background:new 0 0 244 150;" xml:space="preserve">
<style type="text/css">
	.st0{clip-path:url(#SVGID_2_);}
	.st1{fill:url(#Union_61_1_);}
</style>
<g>
	<defs>
		<rect id="SVGID_1_" width="244" height="150"/>
	</defs>
	<clipPath id="SVGID_2_">
		<use xlink:href="#SVGID_1_"  style="overflow:visible;"/>
	</clipPath>
	<g id="Icon2-card-c" class="st0">
		
			<linearGradient id="Union_61_1_" gradientUnits="userSpaceOnUse" x1="-386.7577" y1="584.4651" x2="-385.9657" y2="583.4362" gradientTransform="matrix(185.2805 0 0 -123.2251 71714.1172 72033.3516)">
			<stop  offset="0" style="stop-color:#FFD200"/>
			<stop  offset="1" style="stop-color:#FF2E3A"/>
		</linearGradient>
		<path id="Union_61" class="st1" d="M89.2,103.7c0-17.9,14.5-32.5,32.5-32.5c17.9,0,32.5,14.5,32.5,32.5s-14.5,32.5-32.5,32.5
			C103.7,136.2,89.2,121.7,89.2,103.7z M125.6,128.3l1.8,3.5c3.4-0.7,6.6-2,9.5-3.9l-1.3-3.7l6.1-6.1l3.9,1.2c1.9-2.9,3.2-6.1,4-9.5
			l-3.6-1.7v-8.6l3.7-1.9c-0.7-3.4-2.1-6.6-3.9-9.5l-3.8,1.3l-6.1-6.1l1.2-3.8c-2.9-1.9-6.1-3.2-9.5-3.9l-1.6,3.5h-8.6l-1.8-3.4
			c-3.4,0.7-6.6,2.1-9.5,4l1.2,3.4l-6.1,6.1l-3.5-1.1c-1.9,2.9-3.2,6.1-3.9,9.5l3.2,1.5v8.6l-3.2,1.7c0.7,3.4,2,6.6,3.9,9.6l3.4-1.2
			l6.1,6.1l-1.1,3.6c2.9,1.9,6.1,3.3,9.5,4l1.6-3.4L125.6,128.3z M102.6,103.7c0-10.5,8.5-19,19-19c0,0,0,0,0,0c10.5,0,19,8.5,19,19
			c0,10.5-8.5,19-19,19c0,0,0,0,0,0C111.1,122.8,102.6,114.2,102.6,103.7L102.6,103.7z M115.2,112.5h4.4v3.3h4.4v-3.3
			c2.9-0.1,5.1-2.5,5.1-5.4c0-2.7-2-5-4.7-5.3l0,0h-4.5v0c0,0-0.1,0-0.1,0c-1,0-1.8-0.8-1.8-1.8c0-1,0.8-1.8,1.8-1.8
			c0,0,0.1,0,0.1,0v0h8.3v-3.7H124v-2.7h-4.4v2.7h-0.2l0,0c-2.9,0.1-5.3,2.4-5.3,5.4c0,2.6,1.9,4.9,4.5,5.3h4.9v0c0,0,0.1,0,0.1,0
			c1,0,1.9,0.8,1.9,1.9s-0.8,1.9-1.9,1.9c0,0-0.1,0-0.1,0v0h-8.4L115.2,112.5z M169.9,110.9l-9-7.2c0-2.3-0.2-4.6-0.6-6.9l11.1,8.9
			c1.5,1.2,3.7,1,5-0.5l31.4-39c1.2-1.5,1-3.7-0.5-5l-22.3-17.9c-1.5-1.2-3.7-1-5,0.5c0,0,0,0,0,0l-20.8,25.9l-3.9,13.2
			c0,0.1-0.1,0.2-0.1,0.3c-1.1-1.7-2.2-3.4-3.5-4.9l3.2-10.8l10.5-36.2c0.5-1.9-0.5-3.8-2.4-4.4c0,0,0,0,0,0l-27.4-8
			c-1.9-0.5-3.8,0.5-4.4,2.4c0,0,0,0,0,0l-7,24l6.6,20.1c-1.8-0.4-3.5-0.7-5.3-0.9l-3.6-11.1l-2.6-8l-8-24.4
			c-0.6-1.9-2.6-2.9-4.4-2.3c0,0,0,0,0,0l-27.1,8.9c-1.8,0.6-2.9,2.6-2.3,4.4c0,0,0,0,0,0l11.8,36.1l5.4,6.6
			c-1.2,1.1-2.3,2.3-3.3,3.5l-6.3-7.8L63.2,43.8c-1.2-1.5-3.4-1.7-5-0.5l-22.2,18c-1.5,1.2-1.7,3.4-0.5,5l31.6,38.9
			c1.2,1.5,3.4,1.7,5,0.5c0,0,0,0,0,0l10.5-8.5c-0.4,2.2-0.6,4.4-0.6,6.6c0,0.1,0,0.2,0,0.3l-8.4,6.8c-2.7,2.2-6.6,1.8-8.7-0.9
			L30.4,67.4c-2.2-2.7-1.8-6.6,0.9-8.7L56.7,38c2.7-2.2,6.6-1.8,8.7,0.9l15.3,18.9l-8.7-26.5c-1.1-3.3,0.7-6.8,4-7.8l31.1-10.2
			c3.3-1.1,6.8,0.7,7.8,4l6.5,20l5.7-19.5c1-3.3,4.4-5.2,7.7-4.2l31.5,9.2c3.3,1,5.2,4.4,4.2,7.7c0,0,0,0,0,0l-8,27.4L177.7,39
			c2.1-2.7,6-3.1,8.7-1L212,58.5c2.7,2.1,3.1,6,1,8.7l-34.3,42.7c-1.2,1.5-3,2.3-4.8,2.3C172.4,112.3,171,111.8,169.9,110.9
			L169.9,110.9z M170.6,100.9l2.1-6.2l1,0.8l-0.6,1.5l1.8,1.4l1.4-0.9l1,0.8l-5.5,3.4L170.6,100.9z M172.5,98.7
			c-0.2,0.6-0.5,1.3-0.8,2l0,0c0.6-0.4,1.2-0.8,1.7-1.2l0.6-0.4l-1.4-1.1L172.5,98.7z M57.5,81.1l-1.3-17.7l17,4.9l1.1,17.4
			L57.5,81.1z M171.8,82.3c0,0-5.5-12.1-0.6-18.1c2.2-2.8,6.2-3.2,9-1c1.7,1.4,2.6,3.5,2.3,5.7c2.1-0.7,4.4-0.3,6.1,1
			c2.8,2.2,3.2,6.2,1,9c-2.6,3.2-7.4,3.9-11.3,3.9C176.2,82.9,174,82.7,171.8,82.3L171.8,82.3z M39.9,62.6l1.2-1l5.6,3.3l-1,0.8
			L44.3,65l-1.8,1.5l0.6,1.5l-1,0.8L39.9,62.6z M41.1,62.9c0.3,0.6,0.5,1.3,0.8,2l0.3,0.7l1.4-1.1L42.8,64
			C42.3,63.7,41.6,63.3,41.1,62.9L41.1,62.9z M137.4,63.7l-3.3-1l0-1.9c1.7-0.8,2.6-3.1,3-4.5c-1,0.2-1.9,0.1-2.9-0.2
			c-3.5-1-5.5-4.6-4.5-8.1c0,0,0,0,0,0c0.9-3.1,3.9-5.1,7.1-4.7c0-0.7,0.1-1.3,0.3-1.9c1-3.5,4.6-5.5,8.1-4.5c0,0,0,0,0,0
			c3.5,1,5.5,4.6,4.5,8.1c-0.2,0.6-0.5,1.3-0.8,1.8c2.8,1.4,4.2,4.6,3.3,7.7c-1,3.5-4.6,5.5-8.1,4.5c-0.9-0.3-1.8-0.7-2.5-1.4
			c-0.4,1.4-0.9,3.8,0.2,5.4l-1,1.6L137.4,63.7z M102.1,63.1c1-1.7,0.4-4.2-0.1-5.6c-0.5,0.4-1.1,0.7-1.7,0.9
			c-3.5,1.1-7.3-0.8-8.4-4.3c-0.3-1-0.4-2-0.3-3l0,0c0,0,0-0.1,0-0.3v0c1-4.9,3.2-9.6,6.2-13.6l0,0c4.8,1.4,9.3,3.9,13,7.2l0,0
			c0.1,0.1,0.2,0.2,0.2,0.2c0.7,0.7,1.2,1.6,1.5,2.5c1.1,3.5-0.8,7.3-4.3,8.4c0,0,0,0,0,0c-0.6,0.2-1.3,0.3-1.9,0.3
			c0.4,1.4,1.4,3.8,3.2,4.6l0.1,1.9l-3.3,1.1l-3.3,1.1L102.1,63.1z M182.4,53.5L183,52l-1.8-1.4l-1.4,0.9l-1-0.8l5.5-3.4l1.2,1
			l-2.1,6.1L182.4,53.5z M182.6,49.6L182,50l1.4,1.1l0.2-0.7c0.2-0.6,0.5-1.3,0.7-2l0,0C183.8,48.8,183.2,49.3,182.6,49.6
			L182.6,49.6z M82.7,30.3l1.5-0.5l4,5.1l-1.3,0.4l-1-1.3l-2.2,0.7l0,1.6l-1.2,0.4L82.7,30.3z M83.7,30.9c0,0.7,0,1.4,0,2.1l0,0.7
			l1.7-0.6l-0.4-0.6C84.5,32.1,84.1,31.5,83.7,30.9L83.7,30.9z M137.2,29.4l-0.1-1.6l-2.2-0.6l-0.9,1.4l-1.2-0.4l3.8-5.3l1.5,0.4
			l0.4,6.5L137.2,29.4z M135.9,25.7l-0.4,0.6l1.7,0.5l0-0.7c0-0.7,0-1.4-0.1-2.1l0,0C136.7,24.5,136.2,25.1,135.9,25.7L135.9,25.7z"
			/>
	</g>
</g>
</svg>
