<?xml version="1.0" encoding="utf-8"?>
<!-- Generator: Adobe Illustrator 21.0.0, SVG Export Plug-In . SVG Version: 6.00 Build 0)  -->
<svg version="1.1" id="图层_1" xmlns="http://www.w3.org/2000/svg" xmlns:xlink="http://www.w3.org/1999/xlink" x="0px" y="0px"
	 viewBox="0 0 244 150" style="enable-background:new 0 0 244 150;" xml:space="preserve">
<style type="text/css">
	.st0{fill:#423B2D;}
</style>
<g>
	<path class="st0" d="M80.1,113.7V27.3c0-0.9,0.2-1.9,0.3-2.8l-24.8,8.1c-5.7,1.9-8.9,8.1-7,13.8l26.7,82.2
		c1.5,4.6,5.8,7.6,10.5,7.6c1.1,0,2.3-0.2,3.4-0.5l7-2.3C87,131.6,80.1,123.4,80.1,113.7z"/>
	<path class="st0" d="M98,100.9l26.7-82.2c0.3-0.8,0.6-1.8,1-2.4H100c-6,0-11.2,5-11.2,11v86.4c0,6,5.1,11.3,11.2,11.3h8.8
		C99.7,120.7,94.9,110.6,98,100.9z"/>
	<path class="st0" d="M203.4,32.6L203.4,32.6l-56.4-18.3c-1.1-0.4-2.2-0.5-3.4-0.5c-4.6,0-9,3-10.5,7.6l-26.7,82.2
		c-1.9,5.7,1.3,12,7.1,13.8l56.4,18.3c1.1,0.4,2.2,0.5,3.4,0.5c4.6,0,9-3,10.5-7.6l26.7-82.2C212.3,40.7,209.1,34.5,203.4,32.6z
		 M150.6,96.9L150.6,96.9c-26.6-32.3-11.1-48.4-1.3-48.3c8.3,0,11.6,6,13.1,12.1c4.4-4.9,11-6.9,17.7-2.1
		C188,64.3,191.1,86.4,150.6,96.9z"/>
</g>
</svg>
