<?xml version="1.0" encoding="utf-8"?>
<!-- Generator: Adobe Illustrator 21.0.0, SVG Export Plug-In . SVG Version: 6.00 Build 0)  -->
<svg version="1.1" id="图层_1" xmlns="http://www.w3.org/2000/svg" xmlns:xlink="http://www.w3.org/1999/xlink" x="0px" y="0px"
	 viewBox="0 0 244 150" style="enable-background:new 0 0 244 150;" xml:space="preserve">
<style type="text/css">
	.st0{fill:#423B2D;}
</style>
<path class="st0" d="M36.8,49.2v19.1c0,1.3,0.3,2.2,1,2.7c0.3,0.3,0.6,0.5,1.1,0.7c0.5,0.2,1,0.4,1.7,0.5c1.8,0.3,3.4,1.2,5.1,2.7
	c1.5,1.5,2.2,3.7,2.2,6.4c0,0.9-0.1,1.7-0.2,2.5c-0.1,0.8-0.4,1.5-0.8,2.1c-0.5,1.3-1.3,2.3-2.2,3.1l-0.6,0.4
	c-0.1,0.3-0.3,0.5-0.6,0.6c-0.3,0.1-0.5,0.3-0.7,0.4c-0.2,0.1-0.4,0.3-0.5,0.4c-0.3,0.1-0.5,0.2-0.8,0.3c-0.3,0.1-0.5,0.1-0.7,0.2
	c-0.2,0.1-0.4,0.1-0.5,0.1c-0.4,0-0.7,0.1-1,0.2c-0.3,0.1-0.5,0.2-0.7,0.3L38,92.2c-0.2,0.1-0.3,0.3-0.3,0.6
	c-0.5,0.7-0.8,1.6-0.8,2.9v22.2c0,6.7,6.1,12.2,13.6,12.2h21.2V40.5h-24C41.7,40.3,36.8,44.3,36.8,49.2z M90.1,17.9H60.2
	c-4.4,0-8,3.2-8,7.1v7.1h37.9C90.1,32.1,90.1,17.9,90.1,17.9z M206.5,41.2c-0.2-0.6-0.4-1.2-0.7-1.8c-0.7-1.3-1.7-2.3-3-2.9
	c-1.1-0.5-1.8-1.3-2-2.3c-0.4-1-0.6-2.1-0.6-3.1c0.1-0.5,0.2-0.7,0.2-0.7v-0.5l0.4-0.8v-0.4c0.1-0.3,0.3-0.5,0.4-0.6
	c0.3-0.5,0.6-1,0.9-1.4c0.3-0.4,0.7-0.7,1.1-1c0.4-0.4,0.7-0.8,1-1.2c0.3-0.4,0.5-0.8,0.6-1.2l0.3-1.2c0.1-0.5,0.1-0.9,0-1.4
	c-0.1-0.5-0.2-0.8-0.4-1.2c-0.2-0.3-0.5-0.6-0.8-1c-0.3-0.3-0.7-0.5-1-0.7c-0.3-0.1-0.8-0.2-1.3-0.2H97.9v14.1h88.5
	c0.4,0,0.8,0,1.2,0.1c0.4,0.1,0.8,0.2,1.1,0.3c0.3,0.1,0.7,0.3,1,0.5s0.6,0.4,0.9,0.7c1.1,0.9,1.8,1.9,2.2,3.1
	c0.1,0.5,0.2,1.1,0.3,1.6c0.1,0.6,0.1,1.1,0.1,1.6v1.9c0,0.5-0.2,1.1-0.5,1.6c-0.3,0.6-0.7,1.1-1.2,1.5c-0.5,0.5-1,0.8-1.7,1.1
	c-0.9,0.7-1.7,1.5-2.2,2.5c-0.5,1.2-0.8,2.3-0.8,3.5c0,1.2,0.3,2.3,0.8,3.5c0.5,1.2,1.4,2.1,2.6,2.7c1.1,0.5,1.8,1.2,2.2,2.1
	c0.5,1,0.7,2,0.6,2.9c-0.1,1-0.4,1.9-0.8,2.7c-0.5,0.8-1.1,1.4-1.8,1.9c-0.5,0.4-1,0.8-1.4,1.2c-0.4,0.5-0.7,0.9-1,1.4l-0.8,3.5
	c0,1.3,0.3,2.4,0.8,3.3s1.4,1.6,2.4,2.1c0.7,0.4,1.2,1,1.6,1.9c0.4,1,0.6,2,0.6,2.9v0.8l-0.4,0.8v0.8l-0.4,0.8
	c-0.5,0.9-1.3,1.5-2.2,1.9c-0.3,0.1-0.5,0.3-0.7,0.5c-0.2,0.2-0.4,0.4-0.5,0.6c-0.1,0.2-0.3,0.5-0.4,0.9c-0.4,0.8-0.6,1.7-0.7,2.8
	c-0.1,1.1,0.2,2.2,0.7,3.2c0.4,0.9,1.1,1.6,2,2.1c1.5,0.9,2.5,1.9,3.1,3.1c0.6,1.2,0.6,2.6,0.1,4.3c-0.4,0.5-0.7,1-1,1.3l-1,1
	c-0.1,0.3-0.2,0.5-0.1,0.6s0.4,0.2,1.1,0.2h9.9c1.2,0,2.1-0.3,2.6-1l0.4-0.8c0.1-0.3,0.2-0.6,0.2-1v-0.8c0-0.5,0-1-0.1-1.4
	c-0.1-0.4-0.2-0.9-0.5-1.4c-0.4-1-0.8-1.7-1.2-1.9c-0.9-0.6-1.7-1.2-2.2-1.8c-0.5-0.6-0.9-1.2-1.2-1.8s-0.4-1.2-0.4-1.7
	s0.1-1,0.3-1.4c0.2-0.4,0.4-0.8,0.7-1.3s0.6-0.9,1.1-1.2c0.5-0.4,1.1-0.7,1.7-1l0.4-0.4l0.4-0.8l0.4-0.4l0.4-0.8
	c0.3-1.2,0.4-2.3,0.4-3.5c0-1.2-0.3-2.3-1-3.5c-0.5-1-1.3-1.7-2.2-2.1c-0.3-0.1-0.5-0.2-0.7-0.3c-0.2-0.1-0.4-0.2-0.6-0.4
	c-0.2-0.2-0.4-0.4-0.5-0.6c-0.1-0.2-0.3-0.4-0.4-0.7c-0.4-0.9-0.6-1.8-0.6-2.7c0-0.3,0-0.5,0.1-0.9c0.1-0.3,0.1-0.6,0.2-0.9
	c0.1-0.3,0.2-0.5,0.3-0.8c0.5-0.8,1.3-1.3,2.2-1.5c1.1-0.1,1.9-0.7,2.4-1.7l1-3.3c0-1.3-0.3-2.5-0.8-3.7c-0.5-1.2-1.4-2.1-2.6-2.9
	c-1.2-0.7-2.1-1.5-2.6-2.5c-0.5-1-0.8-2.1-0.8-3.3c0.1-1,0.5-2,1-2.9c0.1-0.3,0.3-0.5,0.5-0.7c0.2-0.2,0.4-0.4,0.7-0.5
	c0.3-0.1,0.5-0.3,0.8-0.5c0.3-0.2,0.6-0.3,1-0.5c1.2-0.4,2.2-1.2,2.8-2.3l0.6-1l0.3-1.2c0.1-0.5,0.1-0.9,0.1-1.3
	C206.8,42.4,206.7,41.7,206.5,41.2L206.5,41.2z M174.3,71.5c0.2-0.3,0.4-0.7,0.7-1.1c0.8-1,1.9-1.7,3.4-1.9c1.2-0.4,2.1-1,2.6-1.9
	c0.5-0.9,0.7-1.9,0.6-2.9c0-0.9-0.3-1.9-1-2.9c-0.3-0.5-0.6-1-1.1-1.4s-1-0.7-1.5-0.8l-1.4-0.6c-0.4-0.3-0.7-0.5-1-0.8
	s-0.5-0.6-0.8-1c-0.5-0.9-0.7-1.9-0.6-2.9c0-0.5,0.1-1,0.3-1.4c0.2-0.5,0.5-0.9,0.9-1.2c0.7-0.9,1.6-1.5,2.6-1.8
	c1.1-0.3,1.9-1,2.4-2C180.8,46,181,45,181,44c-0.1-0.9-0.5-1.7-1-2.5c-0.1-0.3-0.3-0.5-0.6-0.7s-0.5-0.3-0.8-0.4
	c-0.3-0.1-0.5-0.1-0.8-0.1H80.2v89.6h96.3c1.1,0,1.9-0.4,2.4-1.2c0.3-0.4,0.5-0.8,0.6-1.2c0.1-0.4,0.3-0.8,0.4-1.4v-0.8
	c0-0.3,0-0.5-0.1-0.8c-0.1-0.3-0.1-0.5-0.2-0.7c-0.1-0.2-0.1-0.4-0.1-0.7c-0.3-0.5-0.6-1-0.9-1.4c-0.3-0.4-0.8-0.7-1.3-1
	c-1.5-0.8-2.6-1.7-3.2-2.7c-0.3-0.4-0.5-0.7-0.6-1.1c-0.1-0.3-0.2-0.7-0.3-1.1c-0.1-0.4-0.1-0.8,0-1.2c0.1-0.4,0.1-0.7,0.2-1.1
	c0.1-0.3,0.2-0.6,0.4-1c0.2-0.3,0.4-0.6,0.7-0.9c0.8-1,2-1.7,3.4-2.1c1.1-0.4,1.9-1,2.4-1.9c0.4-0.9,0.6-1.9,0.6-2.9
	c-0.1-1.2-0.5-2.2-1.2-3.3c-0.1-0.4-0.3-0.7-0.6-1c-0.3-0.3-0.6-0.5-0.9-0.7c-0.3-0.2-0.7-0.4-1.1-0.7c-2.4-1.2-3.6-2.8-3.4-4.8
	c0.1-1.9,1.8-3.7,4.9-5.2c0.9-0.4,1.6-1.1,2-2.1c0.1-0.3,0.3-0.5,0.4-0.7c0.1-0.2,0.2-0.4,0.2-0.7c0-0.3,0-0.5,0.1-0.8
	c0.1-0.3,0.1-0.6,0.1-1c-0.1-1-0.5-2-1-2.9c-0.7-1-1.6-1.8-2.8-2.3c-1.4-0.4-2.4-1.2-3-2.3c-0.7-1-1-2.1-1-3.1l0.3-1.2
	C174,72.2,174.1,71.8,174.3,71.5L174.3,71.5z M150.7,65.2c-0.1,0.3-0.8,1.2-2,2.7c-0.4,0.5-1,1.3-1.9,2.4c-0.9,1.1-1.5,1.8-1.7,2.2
	c-1.2,1.4-2.4,2.9-3.4,4.4l-1.6,2.5h-0.2c-0.3,0.7-0.1,1,0.6,1.2c0.7,0.1,1.3,0.2,1.8,0.2h6.3c0.7,0,1.2,0.2,1.6,0.7
	s0.6,0.9,0.6,1.4v4.3c0,0.5-0.2,0.9-0.5,1.1c-0.3,0.2-0.8,0.3-1.3,0.3h-10.9l-1.4,0.4c-0.4,0.1-0.6,0.5-0.6,1l0.2,1.5v1.4
	c0,0.4,0.2,0.7,0.5,0.8s0.8,0.1,1.3,0h10.7c1.2,0,1.8,0.5,1.8,1.5v4.1c0,1.2-0.9,1.7-2.6,1.7h-5.3c-0.5,0.1-1.1,0.2-1.6,0.2h-3
	c-0.5,0-0.9,0.2-1.2,0.5s-0.4,0.7-0.4,1.3v7.1c-0.1,0.5-0.6,0.8-1.4,1h-5.9c-1.6,0-2.4-0.7-2.4-1.9v-3.1c0.1-1.5,0.1-2.6,0-3.3
	l-0.2-1.2c-0.1,0-0.3,0-0.4-0.1s-0.4-0.1-0.8-0.1h-11.2c-0.8,0-1.4-0.2-1.8-0.6c-0.4-0.4-0.6-1-0.6-1.7l-0.2-1.4V96l0.3-0.9
	c0.1-0.3,0.2-0.5,0.3-0.7c0.3-0.5,0.7-0.7,1.4-0.6h12.3c0.3,0,0.4-0.3,0.4-1v-3.5c0-0.5-0.7-0.8-2.2-0.8h-10.7
	c-0.5,0-0.9-0.1-1.2-0.2c-0.3-0.1-0.5-0.4-0.6-1v-2.1c0-0.9-0.1-1.6-0.2-2.1c-0.3-0.8-0.1-1.4,0.5-1.8c0.6-0.5,1.5-0.7,2.5-0.7
	c0.3,0,0.6,0,0.9,0.1c0.3,0.1,0.7,0.1,1.1,0.1c0.4,0,0.8-0.1,1.2-0.2h4.9c0.3,0,0.5-0.1,0.6-0.2c0.1-0.1,0.1-0.3,0-0.6
	c-0.3-0.3-1-1.2-2.2-2.7c-0.7-1-2-2.6-3.9-4.8c-0.7-0.9-1.5-1.9-2.4-3c-0.9-1.1-2-2.3-3-3.6c-0.8-1.3-0.6-2.4,0.6-3.3
	c0.1-0.1,0.3-0.3,0.5-0.4s0.4-0.3,0.7-0.4c0.3-0.1,0.5-0.3,0.6-0.6l2.4-1.5c1.2-0.6,2.4,0,3.4,1.9c0.4,0.7,1.2,1.6,2.2,2.7
	c0.7,0.9,1.2,1.6,1.7,2.2c0.5,0.6,0.9,1.2,1.3,1.8l3.2,3.9c0.4,0.5,0.7,0.9,1,1.2s0.5,0.6,0.6,0.9l0.4,0.4c0.3,0.3,0.6,0.4,1,0.4
	c0.7,0.1,1.1-0.1,1.4-0.6c0-0.1,0.5-0.8,1.4-2.1c1.2-1.5,2.2-3,3-4.2c0.3-0.3,0.6-0.7,1.1-1.4c0.5-0.7,0.9-1.3,1.2-1.7
	c0.3-0.4,0.6-0.9,0.9-1.2c0.4-0.5,1-1.4,1.8-2.5c0.5-0.8,1.1-1.3,1.6-1.7c0.4-0.1,1.1-0.1,2,0.2c0.4,0.1,0.8,0.3,1.1,0.5
	c0.3,0.2,0.6,0.4,0.9,0.7c0.4,0.3,0.7,0.5,1,0.7c0.2,0.1,0.4,0.3,0.6,0.5c0.4,0.4,0.7,0.8,0.9,1.2s0.3,0.8,0.4,1.2
	C151,64.6,150.9,64.9,150.7,65.2L150.7,65.2z"/>
</svg>
