<?xml version="1.0" standalone="no"?><!DOCTYPE svg PUBLIC "-//W3C//DTD SVG 1.1//EN" "http://www.w3.org/Graphics/SVG/1.1/DTD/svg11.dtd"><svg t="1578565160851" class="icon" viewBox="0 0 1024 1024" version="1.1" xmlns="http://www.w3.org/2000/svg" p-id="6551" xmlns:xlink="http://www.w3.org/1999/xlink" width="200" height="200"><defs><style type="text/css"></style></defs><path d="M702.3 371.5h-147V213.2c0-22.4-18.2-40.6-40.6-40.6-22.4 0-40.6 18.2-40.6 40.6v158.3h-146c-144.6 0-261.9 117.2-261.9 261.9 0 144.6 117.2 261.9 261.9 261.9h374.2c144.6 0 261.9-117.2 261.9-261.9S846.9 371.5 702.3 371.5z m16.4 142.2c24.7 0 44.7 20 44.7 44.7s-20 44.7-44.7 44.7-44.7-20-44.7-44.7 20-44.7 44.7-44.7z m-297 122.9c0 16-13 28.9-28.9 28.9h-52.6v52.6c0 16-13 28.9-28.9 28.9-16 0-28.9-13-28.9-28.9v-52.6h-52.6c-16 0-28.9-13-28.9-28.9 0-16 13-28.9 28.9-28.9h52.6v-52.6c0-16 13-28.9 28.9-28.9 16 0 28.9 13 28.9 28.9v52.6h52.6c16 0 28.9 13 28.9 28.9z m218.7 44.5c-24.7 0-44.7-20-44.7-44.7s20-44.7 44.7-44.7 44.7 20 44.7 44.7-20 44.7-44.7 44.7z m78.3 78.5c-24.7 0-44.7-20-44.7-44.7s20-44.7 44.7-44.7 44.7 20 44.7 44.7-20 44.7-44.7 44.7z m81.4-78.5c-24.7 0-44.7-20-44.7-44.7s20-44.7 44.7-44.7c24.7 0 44.7 20 44.7 44.7s-20 44.7-44.7 44.7z" p-id="6552" style="fill: #e9474b;"></path></svg>