<?xml version="1.0" encoding="utf-8"?>
<!-- Generator: Adobe Illustrator 21.0.0, SVG Export Plug-In . SVG Version: 6.00 Build 0)  -->
<svg version="1.1" id="Layer_1" xmlns="http://www.w3.org/2000/svg" xmlns:xlink="http://www.w3.org/1999/xlink" x="0px" y="0px"
	 viewBox="0 0 512 512" style="enable-background:new 0 0 512 512;" xml:space="preserve">
<style type="text/css">
	.st0{fill:#FFFFFF;}
</style>
<g>
	<g>
		<g>
			<path class="st0" d="M256,0C114.6,0,0,114.6,0,256s114.6,256,256,256s256-114.6,256-256S397.4,0,256,0z M256,469.3
				c-117.8,0-213.3-95.5-213.3-213.3S138.2,42.7,256,42.7S469.3,138.2,469.3,256S373.8,469.3,256,469.3z"/>
			<path class="st0" d="M384,298.7H128c-11.8,0-21.3,9.6-21.3,21.3c0,77.2,65.7,128,149.3,128s149.3-50.8,149.3-128
				C405.3,308.2,395.8,298.7,384,298.7z M256,405.3c-53,0-93.2-25.1-103.9-64h207.7C349.2,380.3,309,405.3,256,405.3z"/>
			<path class="st0" d="M134.2,249.8c8.3,8.3,21.8,8.3,30.2,0l42.7-42.7c8.3-8.3,8.3-21.8,0-30.2l-42.7-42.7
				c-8.3-8.3-21.8-8.3-30.2,0s-8.3,21.8,0,30.2l27.6,27.6l-27.6,27.6C125.9,227.9,125.9,241.4,134.2,249.8z"/>
			<path class="st0" d="M347.6,249.8c8.3,8.3,21.8,8.3,30.2,0c8.3-8.3,8.3-21.8,0-30.2L350.2,192l27.6-27.6c8.3-8.3,8.3-21.8,0-30.2
				s-21.8-8.3-30.2,0l-42.7,42.7c-8.3,8.3-8.3,21.8,0,30.2L347.6,249.8z"/>
		</g>
	</g>
</g>
</svg>
