<?xml version="1.0" encoding="utf-8"?>
<!-- Generator: Adobe Illustrator 21.0.0, SVG Export Plug-In . SVG Version: 6.00 Build 0)  -->
<svg version="1.1" id="图层_1" xmlns="http://www.w3.org/2000/svg" xmlns:xlink="http://www.w3.org/1999/xlink" x="0px" y="0px"
	 viewBox="0 0 244 150" style="enable-background:new 0 0 244 150;" xml:space="preserve">
<style type="text/css">
	.st0{fill:#BFBFBF;}
</style>
<g>
	<path d="M122.6,123.9"/>
</g>
<g>
	<g>
		<path class="st0" d="M130.5,70.1h-3.5v-1.4c0-2.2-0.7-6-4.7-6c-4.3,0-4.7,4.2-4.7,6v1.4H114v-1.4c0-5.8,3.2-9.5,8.2-9.5
			c5,0,8.2,3.7,8.2,9.5V70.1z M124.6,78.3c0-1.4-1.1-2.5-2.4-2.5c-1.3,0-2.4,1.1-2.4,2.5c0,1,0.4,1.7,1.2,2.1v2.7
			c0,0.6,0.5,1.3,1.2,1.3c0.7,0,1.2-0.5,1.2-1.3v-2.7C124.2,80,124.6,79.3,124.6,78.3L124.6,78.3z M134,73.5v12.1
			c0,2-1.6,3.6-3.5,3.6H114c-2,0-3.5-1.7-3.5-3.6V73.5c0-2,1.6-3.6,3.5-3.6h16.5C132.4,69.9,134,71.5,134,73.5L134,73.5z M134,73.5"
			style="fill: #6b6b6b;" />
	</g>
</g>
</svg>
