<?xml version="1.0" encoding="utf-8"?>
<!-- Generator: Adobe Illustrator 21.0.0, SVG Export Plug-In . SVG Version: 6.00 Build 0)  -->
<svg version="1.1" id="图层_1" xmlns="http://www.w3.org/2000/svg" xmlns:xlink="http://www.w3.org/1999/xlink" x="0px" y="0px"
	 viewBox="0 0 244 150" style="enable-background:new 0 0 244 150;" xml:space="preserve">
<style type="text/css">
	.st0{fill:url(#SVGID_1_);}
	.st1{fill:url(#SVGID_2_);}
	.st2{fill:url(#SVGID_3_);}
	.st3{fill:url(#SVGID_4_);}
</style>
<linearGradient id="SVGID_1_" gradientUnits="userSpaceOnUse" x1="55.8392" y1="-5.8747" x2="193.8951" y2="132.1812">
	<stop  offset="0" style="stop-color:#FFD200"/>
	<stop  offset="1" style="stop-color:#FF2E3A"/>
</linearGradient>
<path class="st0" d="M86,99c-1.3,4.2-2.1,8.3-2.3,12h-0.3c-0.3-3.7-1-7.6-2.1-11.8L58.7,15.5H34.5l36,118.3h25.2L132,15.5h-23.4
	L86,99z M203.6,81.1c-3.9-5.6-11.1-11-21.4-15.9c-9-4.4-14.4-7.8-16.7-10.5c-2.3-2.5-3.3-5.4-3.3-8.3c0-3.9,1.5-6.9,4.9-9.1
	c3.3-2.2,7.7-3.4,13.1-3.4c9.5,0,17.8,2.7,24.7,8.1V18.2c-6.9-2.9-15.4-4.4-25.7-4.4c-12.4,0-22.1,2.9-29.6,9.1
	c-7.5,6.1-11.1,14.7-11.1,25.7c0,14.9,8.2,26.5,24.4,34.3c10.3,4.9,16.7,8.8,19.3,11.5c2.6,2.7,3.6,5.9,3.6,9.1
	c0,3.7-1.5,6.9-4.6,9.1c-3.1,2.5-7.7,3.7-13.6,3.7c-10.8,0-20.3-3.9-28.8-11.8v25.2c7.7,4.4,17.5,6.6,29.6,6.6
	c13.1,0,23.2-2.9,30.4-9.1c7.2-5.9,10.8-14.7,10.8-26C209.5,93.4,207.4,86.5,203.6,81.1L203.6,81.1z"/>
<g>
	<linearGradient id="SVGID_2_" gradientUnits="userSpaceOnUse" x1="43.8781" y1="-230.0904" x2="114.6617" y2="-157.0474">
		<stop  offset="0" style="stop-color:#FFD200"/>
		<stop  offset="1" style="stop-color:#FF2E3A"/>
	</linearGradient>
	<path class="st1" d="M80.1-158.7v-86.4c0-0.9,0.2-1.9,0.3-2.8l-24.8,8.1c-5.7,1.9-8.9,8.1-7,13.8l26.7,82.2
		c1.5,4.6,5.8,7.6,10.5,7.6c1.1,0,2.3-0.2,3.4-0.5l7-2.3C87-140.9,80.1-149.1,80.1-158.7z"/>
	<linearGradient id="SVGID_3_" gradientUnits="userSpaceOnUse" x1="76.1041" y1="-237.3901" x2="136.8841" y2="-174.67">
		<stop  offset="0" style="stop-color:#FFD200"/>
		<stop  offset="1" style="stop-color:#FF2E3A"/>
	</linearGradient>
	<path class="st2" d="M98-171.6l26.7-82.2c0.3-0.8,0.6-1.8,1-2.4H100c-6,0-11.2,5-11.2,11v86.4c0,6,5.1,11.3,11.2,11.3h8.8
		C99.7-151.8,94.9-161.9,98-171.6z"/>
	<linearGradient id="SVGID_4_" gradientUnits="userSpaceOnUse" x1="118.4555" y1="-238.7236" x2="198.3652" y2="-156.2631">
		<stop  offset="0" style="stop-color:#FFD200"/>
		<stop  offset="1" style="stop-color:#FF2E3A"/>
	</linearGradient>
	<path class="st3" d="M203.4-239.9L203.4-239.9l-56.4-18.3c-1.1-0.4-2.2-0.5-3.4-0.5c-4.6,0-9,3-10.5,7.6L106.4-169
		c-1.9,5.7,1.3,12,7.1,13.8l56.4,18.3c1.1,0.4,2.2,0.5,3.4,0.5c4.6,0,9-3,10.5-7.6l26.7-82.2C212.3-231.8,209.1-238,203.4-239.9z
		 M150.6-175.6L150.6-175.6c-26.6-32.3-11.1-48.4-1.3-48.3c8.3,0,11.6,6,13.1,12.1c4.4-4.9,11-6.9,17.7-2.1
		C188-208.2,191.1-186.1,150.6-175.6z"/>
</g>
</svg>
