<svg xmlns="http://www.w3.org/2000/svg" viewBox="0 0 18.83 24.13"><defs><style>.cls-1{fill:#666;}</style></defs><title>资源 1</title><g id="图层_2" data-name="图层 2"><g id="Capa_1" data-name="Capa 1"><path class="cls-1" d="M0,17.85v4.71a1.57,1.57,0,0,0,1.57,1.57H17.26a1.57,1.57,0,0,0,1.57-1.57V17.85a4.7,4.7,0,0,0-4.71-4.71h-.4a.41.41,0,0,0-.4.38,3.92,3.92,0,0,1-7.81,0,.41.41,0,0,0-.4-.38h-.4A4.71,4.71,0,0,0,0,17.85Z"/><path class="cls-1" d="M9.41,12.9c3.12,0,5.64-2.89,5.64-6.45S12.53,0,9.41,0,3.77,2.89,3.77,6.45,6.3,12.9,9.41,12.9Zm0-6.45A3.21,3.21,0,0,0,12.5,4.69,4,4,0,1,1,5.38,7.26C5.38,6.28,7.94,6.45,9.41,6.45Z"/></g></g></svg>