<svg xmlns="http://www.w3.org/2000/svg" viewBox="0 0 27.13 23.25"><defs><style>.cls-1{fill:#666;}</style></defs><title>资源 2</title><g id="图层_2" data-name="图层 2"><g id="Capa_1" data-name="Capa 1"><path class="cls-1" d="M17.39,20a.19.19,0,0,0-.13-.05H9.87a.19.19,0,0,0-.13.05L7.25,22.4a.19.19,0,0,0-.06.14v.52a.19.19,0,0,0,.19.19H19.74a.19.19,0,0,0,.19-.19v-.52a.19.19,0,0,0-.06-.14Z"/><path class="cls-1" d="M26.59,0H.54A.54.54,0,0,0,0,.54V19a.54.54,0,0,0,.54.54H26.59a.54.54,0,0,0,.54-.54V.54A.54.54,0,0,0,26.59,0Zm-13,18.54a.59.59,0,1,1,.59-.59A.59.59,0,0,1,13.56,18.54ZM25,16.17H2.17V2.56H25V16.17Z"/><path class="cls-1" d="M9.3,9.24h2.63a.16.16,0,0,0,.16-.16V5.87a.16.16,0,0,0-.19-.16l-2.63.57a.16.16,0,0,0-.13.16V9.08A.16.16,0,0,0,9.3,9.24Z"/><path class="cls-1" d="M12.91,13.62l3.33.72h0a.16.16,0,0,0,.16-.16V10.1a.16.16,0,0,0-.16-.16H12.95a.16.16,0,0,0-.16.16v3.36A.16.16,0,0,0,12.91,13.62Z"/><path class="cls-1" d="M12.95,9.24h3.33a.16.16,0,0,0,.16-.16V5a.16.16,0,0,0-.19-.16l-3.33.72a.16.16,0,0,0-.13.16V9.08A.16.16,0,0,0,12.95,9.24Z"/><path class="cls-1" d="M9.27,12.9l2.63.57h0a.16.16,0,0,0,.16-.16V10.1a.16.16,0,0,0-.16-.16H9.3a.16.16,0,0,0-.16.16v2.65A.16.16,0,0,0,9.27,12.9Z"/></g></g></svg>